<svg width="30" height="30" viewBox="0 0 34 39" version="1.1" xmlns="http://www.w3.org/2000/svg" xmlns:xlink="http://www.w3.org/1999/xlink">
<title>basic_flag2</title>
<desc>Created using Figma</desc>
<g id="Canvas" transform="translate(-6202 70)">
<g id="basic_flag2">
<g id="Vector">
<use xlink:href="#path0_stroke" transform="translate(6203 -70)" fill="#40C18E"/>
</g>
<g id="Vector">
<use xlink:href="#path1_stroke" transform="translate(6215.16 -66.3439)" fill="#40C18E"/>
</g>
<g id="Vector">
<use xlink:href="#path2_stroke" transform="translate(6203 -66.3439)" fill="#40C18E"/>
</g>
</g>
</g>
<defs>
<path id="path0_stroke" d="M -0.5 0L -0.5 39L 0.5 39L 0.5 0L -0.5 0Z"/>
<path id="path1_stroke" d="M 0 3.04687L -0.308822 2.65365L -0.5 2.80379L -0.5 3.04687L 0 3.04687ZM 0 17.6719L -0.5 17.6719L -0.5 18.1719L 0 18.1719L 0 17.6719ZM 19.8398 17.6719L 19.8398 18.1719L 20.6671 18.1719L 20.2825 17.4394L 19.8398 17.6719ZM 15.9998 10.3594L 15.5572 10.1269L 15.4351 10.3594L 15.5572 10.5918L 15.9998 10.3594ZM 19.8398 3.04687L 20.2825 3.27933L 20.6671 2.54687L 19.8398 2.54687L 19.8398 3.04687ZM 3.57082 -0.393229L -0.308822 2.65365L 0.308822 3.4401L 4.18846 0.393229L 3.57082 -0.393229ZM -0.5 3.04687L -0.5 17.6719L 0.5 17.6719L 0.5 3.04687L -0.5 3.04687ZM 0 18.1719L 19.8398 18.1719L 19.8398 17.1719L 0 17.1719L 0 18.1719ZM 20.2825 17.4394L 16.4425 10.1269L 15.5572 10.5918L 19.3971 17.9043L 20.2825 17.4394ZM 16.4425 10.5918L 20.2825 3.27933L 19.3971 2.81441L 15.5572 10.1269L 16.4425 10.5918ZM 19.8398 2.54687L 0 2.54687L 0 3.54687L 19.8398 3.54687L 19.8398 2.54687Z"/>
<path id="path2_stroke" d="M 0 14.625L -0.5 14.625L -0.5 15.125L 0 15.125L 0 14.625ZM 0 0L 0 -0.5L -0.5 -0.5L -0.5 0L 0 0ZM 15.9998 0L 16.4998 0L 16.4998 -0.5L 15.9998 -0.5L 15.9998 0ZM 12.1599 14.125L 0 14.125L 0 15.125L 12.1599 15.125L 12.1599 14.125ZM 0.5 14.625L 0.5 0L -0.5 0L -0.5 14.625L 0.5 14.625ZM 0 0.5L 15.9998 0.5L 15.9998 -0.5L 0 -0.5L 0 0.5ZM 15.4998 0L 15.4998 3.04688L 16.4998 3.04688L 16.4998 0L 15.4998 0Z"/>
</defs>
</svg>
