<svg width="36" height="42" viewBox="0 0 36 42" version="1.1" xmlns="http://www.w3.org/2000/svg" xmlns:xlink="http://www.w3.org/1999/xlink">
<title>basic_mixer2</title>
<desc>Created using Figma</desc>
<g id="Canvas" transform="translate(-351 -759)">
<g id="basic_mixer2">
<g id="Vector">
<use xlink:href="#path0_stroke" transform="translate(355.857 771.209)" fill="#40C18E"/>
</g>
<g id="Vector">
<use xlink:href="#path0_stroke" transform="translate(381.573 759)" fill="#40C18E"/>
</g>
<g id="Vector">
<use xlink:href="#path1_stroke" transform="translate(368.715 783.419)" fill="#40C18E"/>
</g>
<g id="Vector">
<use xlink:href="#path1_stroke" transform="translate(368.715 759)" fill="#40C18E"/>
</g>
<g id="Vector">
<use xlink:href="#path2_stroke" transform="translate(352 763.498)" fill="#40C18E"/>
</g>
<g id="Vector">
<use xlink:href="#path2_stroke" transform="translate(377.716 787.917)" fill="#40C18E"/>
</g>
<g id="Vector">
<use xlink:href="#path2_stroke" transform="translate(364.858 775.708)" fill="#40C18E"/>
</g>
<g id="Vector">
<use xlink:href="#path3_stroke" transform="translate(355.857 759)" fill="#40C18E"/>
</g>
<g id="Vector">
<use xlink:href="#path3_stroke" transform="translate(381.573 795.628)" fill="#40C18E"/>
</g>
</g>
</g>
<defs>
<path id="path0_stroke" d="M -0.64275 0L -0.64275 28.9172L 0.64275 28.9172L 0.64275 0L -0.64275 0Z"/>
<path id="path1_stroke" d="M -0.64275 0L -0.64275 16.7077L 0.64275 16.7077L 0.64275 0L -0.64275 0Z"/>
<path id="path2_stroke" d="M 7.07199 3.85563C 7.07199 5.62977 5.63303 7.0685 3.85737 7.0685L 3.85737 8.354C 6.34245 8.354 8.35749 6.34028 8.35749 3.85563L 7.07199 3.85563ZM 3.85737 7.0685C 2.08171 7.0685 0.64275 5.62977 0.64275 3.85563L -0.64275 3.85563C -0.64275 6.34028 1.3723 8.354 3.85737 8.354L 3.85737 7.0685ZM 0.64275 3.85563C 0.64275 2.08148 2.08171 0.64275 3.85737 0.64275L 3.85737 -0.64275C 1.3723 -0.64275 -0.64275 1.37097 -0.64275 3.85563L 0.64275 3.85563ZM 3.85737 0.64275C 5.63303 0.64275 7.07199 2.08148 7.07199 3.85563L 8.35749 3.85563C 8.35749 1.37097 6.34245 -0.64275 3.85737 -0.64275L 3.85737 0.64275Z"/>
<path id="path3_stroke" d="M -0.64275 0L -0.64275 4.49823L 0.64275 4.49823L 0.64275 0L -0.64275 0Z"/>
</defs>
</svg>
