<svg width="30" height="30" viewBox="0 0 47 30" version="1.1" xmlns="http://www.w3.org/2000/svg" xmlns:xlink="http://www.w3.org/1999/xlink">
<title>software_transform_bezier</title>
<desc>Created using Figma</desc>
<g id="Canvas" transform="translate(808 238)">
<g id="software_transform_bezier">
<g id="Vector">
<use xlink:href="#path0_stroke" transform="translate(-807 -216.368)" fill="#FFFFFF"/>
</g>
<g id="Vector">
<use xlink:href="#path0_stroke" transform="translate(-769.258 -216.368)" fill="#FFFFFF"/>
</g>
<g id="Vector">
<use xlink:href="#path0_stroke" transform="translate(-788.129 -237)" fill="#FFFFFF"/>
</g>
<g id="Vector">
<use xlink:href="#path1_stroke" transform="translate(-807 -235.526)" fill="#FFFFFF"/>
</g>
<g id="Vector">
<use xlink:href="#path1_stroke" transform="translate(-766.355 -235.526)" fill="#FFFFFF"/>
</g>
<g id="Vector">
<use xlink:href="#path2_stroke" transform="translate(-803.371 -233.316)" fill="#FFFFFF"/>
</g>
<g id="Vector">
<use xlink:href="#path3_stroke" transform="translate(-780.871 -233.316)" fill="#FFFFFF"/>
</g>
</g>
</g>
<defs>
<path id="path0_stroke" d="M 0 0L 0 -0.727256L -0.727256 -0.727256L -0.727256 0L 0 0ZM 7.25806 0L 7.98532 0L 7.98532 -0.727256L 7.25806 -0.727256L 7.25806 0ZM 7.25806 7.36842L 7.25806 8.09568L 7.98532 8.09568L 7.98532 7.36842L 7.25806 7.36842ZM 0 7.36842L -0.727256 7.36842L -0.727256 8.09568L 0 8.09568L 0 7.36842ZM 0 0.727256L 7.25806 0.727256L 7.25806 -0.727256L 0 -0.727256L 0 0.727256ZM 6.53081 0L 6.53081 7.36842L 7.98532 7.36842L 7.98532 0L 6.53081 0ZM 7.25806 6.64116L 0 6.64116L 0 8.09568L 7.25806 8.09568L 7.25806 6.64116ZM 0.727256 7.36842L 0.727256 0L -0.727256 0L -0.727256 7.36842L 0.727256 7.36842Z"/>
<path id="path1_stroke" d="M 3.62758 2.21053C 3.62758 3.0401 2.96801 3.6938 2.17742 3.6938L 2.17742 5.14831C 3.79193 5.14831 5.08209 3.82263 5.08209 2.21053L 3.62758 2.21053ZM 2.17742 3.6938C 1.38682 3.6938 0.727256 3.0401 0.727256 2.21053L -0.727256 2.21053C -0.727256 3.82263 0.562904 5.14831 2.17742 5.14831L 2.17742 3.6938ZM 0.727256 2.21053C 0.727256 1.38095 1.38682 0.727256 2.17742 0.727256L 2.17742 -0.727256C 0.562904 -0.727256 -0.727256 0.598419 -0.727256 2.21053L 0.727256 2.21053ZM 2.17742 0.727256C 2.96801 0.727256 3.62758 1.38095 3.62758 2.21053L 5.08209 2.21053C 5.08209 0.598419 3.79193 -0.727256 2.17742 -0.727256L 2.17742 0.727256Z"/>
<path id="path2_stroke" d="M 0.725806 0.727256L 15.2419 0.727256L 15.2419 -0.727256L 0.725806 -0.727256L 0.725806 0.727256ZM 15.2419 -0.727256C 7.26474 -0.727256 3.23293 3.74795 1.24196 8.17542C 0.262714 10.362 -0.238539 12.5768 -0.481066 14.1915C -0.603014 15.0072 -0.665567 15.6999 -0.695991 16.1725C -0.711369 16.4127 -0.719358 16.6072 -0.723208 16.7352C -0.725173 16.8011 -0.726221 16.8543 -0.726715 16.8882C -0.726971 16.906 -0.727115 16.9209 -0.72718 16.9299C -0.727214 16.9348 -0.727235 16.9392 -0.727244 16.9417C -0.727249 16.9432 -0.727253 16.9446 -0.727254 16.9453C -0.727255 16.9458 -0.727256 16.9463 -0.727256 16.9465C -0.727256 16.947 -0.727256 16.9474 0 16.9474C 0.727256 16.9474 0.727256 16.9476 0.727256 16.9478C 0.727256 16.9478 0.727256 16.9479 0.727256 16.9479C 0.727257 16.9476 0.727257 16.9475 0.727259 16.9469C 0.727265 16.9452 0.727273 16.9435 0.727296 16.9403C 0.727347 16.933 0.727436 16.9235 0.727645 16.9093C 0.728081 16.8791 0.728894 16.8371 0.730651 16.7788C 0.734243 16.6587 0.741139 16.489 0.75553 16.2658C 0.784644 15.8116 0.84117 15.1803 0.957376 14.4071C 1.19116 12.8443 1.64253 10.8222 2.56852 8.77195C 4.38804 4.72574 7.9772 0.727256 15.2419 0.727256L 15.2419 -0.727256Z"/>
<path id="path3_stroke" d="M 14.5161 -0.727256L 0 -0.727256L 0 0.727256L 14.5161 0.727256L 14.5161 -0.727256ZM 0 0.727256C 7.26474 0.727256 10.8539 4.72574 12.6734 8.77195C 13.5994 10.8222 14.0508 12.8443 14.2846 14.4071C 14.4008 15.1803 14.4573 15.8116 14.4864 16.2658C 14.5008 16.489 14.5077 16.6587 14.5113 16.7788C 14.513 16.8371 14.5139 16.8791 14.5143 16.9093C 14.5145 16.9235 14.5146 16.933 14.5146 16.9403C 14.5147 16.9435 14.5147 16.9452 14.5147 16.9469C 14.5147 16.9475 14.5147 16.9476 14.5147 16.9479C 14.5147 16.9479 14.5147 16.9478 14.5147 16.9478C 14.5147 16.9476 14.5147 16.9474 15.2419 16.9474C 15.9692 16.9474 15.9692 16.947 15.9692 16.9465C 15.9692 16.9463 15.9692 16.9458 15.9692 16.9453C 15.9692 16.9446 15.9692 16.9432 15.9692 16.9417C 15.9692 16.9392 15.9692 16.9348 15.9691 16.9299C 15.9691 16.9209 15.9689 16.906 15.9687 16.8882C 15.9682 16.8543 15.9671 16.8011 15.9651 16.7352C 15.9613 16.6072 15.9533 16.4127 15.9379 16.1725C 15.9075 15.6999 15.845 15.0072 15.723 14.1915C 15.4805 12.5768 14.9792 10.362 14 8.17542C 12.009 3.74795 7.9772 -0.727256 0 -0.727256L 0 0.727256Z"/>
</defs>
</svg>
