<svg width="18" height="18" viewBox="0 0 18 18" version="1.1" xmlns="http://www.w3.org/2000/svg" xmlns:xlink="http://www.w3.org/1999/xlink">
<title>drive-document</title>
<desc>Created using Figma</desc>
<g id="Canvas" transform="translate(-3373 -224)">
<g id="drive-document">
<g id="Shape">
<use xlink:href="#path0_fill" transform="translate(3373 224)" fill="#828282"/>
</g>
</g>
</g>
<defs>
<path id="path0_fill" fill-rule="evenodd" d="M 16 0L 2 0C 0.9 0 0 0.9 0 2L 0 16C 0 17.1 0.9 18 2 18L 16 18C 17.1 18 18 17.1 18 16L 18 2C 18 0.9 17.1 0 16 0ZM 14 6L 4 6L 4 4L 14 4L 14 6ZM 14 10L 4 10L 4 8L 14 8L 14 10ZM 11 14L 4 14L 4 12L 11 12L 11 14Z"/>
</defs>
</svg>
