<svg width="213" height="213" viewBox="0 0 213 213" version="1.1" xmlns="http://www.w3.org/2000/svg" xmlns:xlink="http://www.w3.org/1999/xlink">
<title>Microphone</title>
<desc>Created using Figma</desc>
<g id="Canvas" transform="matrix(3 0 0 3 -4281 -1746)">
<g id="Microphone">
<g id="Fill 1">
<use xlink:href="#path0_fill" transform="translate(1428 583)" fill="#40C18E"/>
<use xlink:href="#path1_stroke" transform="translate(1428 583)" fill="#FFFFFF"/>
</g>
</g>
</g>
<defs>
<path id="path0_fill" fill-rule="evenodd" d="M 57.5766 23.272L 67.3902 22.5577C 68.3766 22.4848 69.2352 23.2248 69.3088 24.2113C 69.3816 25.1977 68.6409 26.0563 67.6545 26.1291L 57.8409 26.8434L 57.7052 26.8434C 56.7188 26.8791 55.8909 26.1084 55.8552 25.122C 55.8195 24.1355 56.5902 23.3077 57.5766 23.272ZM 47.5767 8.94341L 53.1267 0.786268C 53.6845 -0.0344461 54.8024 -0.246589 55.6231 0.311268C 56.4431 0.86984 56.6559 1.98698 56.0981 2.8077L 50.5195 10.9291C 49.9631 11.7434 48.8517 11.9534 48.0374 11.397C 47.2224 10.8406 47.0131 9.72984 47.5688 8.91484L 47.5767 8.94341ZM 53.3909 15.4434L 61.9195 10.5362C 62.7959 10.0841 63.8724 10.4277 64.3252 11.3034C 64.7488 12.1248 64.4767 13.1327 63.6974 13.6291L 55.1695 18.5077C 54.2602 18.8912 53.2138 18.4662 52.8295 17.5577C 52.5124 16.8077 52.7431 15.9377 53.3909 15.4434ZM 5.5831 34.172L 13.0267 29.8863L 22.3831 46.1584L 14.941 50.4441C 13.0174 51.5456 10.5645 50.8799 9.46238 48.9563C 9.45952 48.952 9.45738 48.9477 9.45524 48.9434L 4.11238 39.6577C 3.00667 37.7363 3.66452 35.282 5.5831 34.172ZM 33.1052 5.69342C 43.7452 14.7327 50.9131 27.1884 53.3838 40.9291L 34.7409 39.9648L 24.5767 22.3006L 33.1052 5.69342ZM 35.1909 60.272C 36.1159 62.1649 35.3317 64.4491 33.4395 65.3741C 31.5467 66.2991 29.2624 65.5148 28.3367 63.6227C 28.2859 63.517 28.2395 63.4099 28.1981 63.3013L 23.5624 49.5791L 28.1481 46.9363L 35.1909 60.272ZM 21.8837 24.7863L 31.2409 41.0363L 25.4837 44.3505L 16.098 28.1005L 21.8837 24.7863ZM 6.3552 50.722C 7.34877 52.4806 9.0052 53.767 10.9545 54.2934C 11.6023 54.4684 12.2702 54.557 12.9409 54.5577C 14.2652 54.5563 15.5659 54.207 16.7123 53.5434L 20.3981 51.4006L 24.8123 64.4291C 26.1209 68.2927 30.3145 70.3627 34.1773 69.0541C 38.0402 67.7449 40.1116 63.552 38.8023 59.6891C 38.6773 59.3191 38.5223 58.9599 38.3402 58.6149L 31.2409 45.1577L 34.0981 43.5077L 55.3838 44.6077C 56.3681 44.672 57.2173 43.9263 57.2816 42.942C 57.2895 42.8234 57.2852 42.7041 57.2688 42.5863C 54.9552 26.367 46.4923 11.6591 33.6331 1.50772C 32.8609 0.894858 31.7381 1.02414 31.1245 1.79629C 31.0516 1.88843 30.9873 1.98843 30.9338 2.09343L 21.1909 21.0649L 3.8052 31.0649C 0.172344 33.1591 -1.07766 37.8006 1.01234 41.4363L 6.3552 50.722Z"/>
<path id="path1_stroke" d="M 67.3902 22.5577L 67.4083 22.807L 67.4086 22.807L 67.3902 22.5577ZM 69.3088 24.2113L 69.5581 24.1928L 69.5581 24.1927L 69.3088 24.2113ZM 67.6545 26.1291L 67.6726 26.3785L 67.6729 26.3784L 67.6545 26.1291ZM 57.8409 26.8434L 57.8409 27.0934L 57.85 27.0934L 57.8591 27.0927L 57.8409 26.8434ZM 57.7052 26.8434L 57.7052 26.5932L 57.6962 26.5936L 57.7052 26.8434ZM 47.5767 8.94341L 47.3356 9.0097L 47.479 9.5313L 47.7834 9.08404L 47.5767 8.94341ZM 53.1267 0.786268L 53.3334 0.9269L 53.3334 0.926806L 53.1267 0.786268ZM 55.6231 0.311268L 55.7638 0.10465L 55.7636 0.10451L 55.6231 0.311268ZM 56.0981 2.8077L 56.3042 2.94925L 56.3048 2.94824L 56.0981 2.8077ZM 50.5195 10.9291L 50.3134 10.7876L 50.3131 10.7881L 50.5195 10.9291ZM 48.0374 11.397L 48.1784 11.1906L 48.1783 11.1905L 48.0374 11.397ZM 47.5688 8.91484L 47.8098 8.84855L 47.6666 8.32764L 47.3622 8.774L 47.5688 8.91484ZM 61.9195 10.5362L 61.8048 10.3138L 61.7948 10.3195L 61.9195 10.5362ZM 64.3252 11.3034L 64.5474 11.1888L 64.5473 11.1885L 64.3252 11.3034ZM 63.6974 13.6291L 63.8217 13.8463L 63.8317 13.8399L 63.6974 13.6291ZM 55.1695 18.5077L 55.2667 18.738L 55.2806 18.7322L 55.2937 18.7247L 55.1695 18.5077ZM 52.8295 17.5577L 52.5993 17.655L 52.5993 17.6551L 52.8295 17.5577ZM 13.0267 29.8863L 13.2434 29.7617L 13.1187 29.5448L 12.9019 29.6696L 13.0267 29.8863ZM 22.3831 46.1584L 22.5079 46.3751L 22.7244 46.2504L 22.5998 46.0338L 22.3831 46.1584ZM 14.941 50.4441L 15.0652 50.6611L 15.0657 50.6608L 14.941 50.4441ZM 9.46238 48.9563L 9.6793 48.832L 9.67509 48.8247L 9.67039 48.8176L 9.46238 48.9563ZM 9.45524 48.9434L 9.67884 48.8316L 9.67558 48.8251L 9.67193 48.8188L 9.45524 48.9434ZM 4.11238 39.6577L 4.32907 39.533L 4.32906 39.533L 4.11238 39.6577ZM 33.1052 5.69342L 33.2671 5.50289L 33.0269 5.29879L 32.8828 5.57921L 33.1052 5.69342ZM 53.3838 40.9291L 53.3709 41.1788L 53.6856 41.1951L 53.6299 40.8849L 53.3838 40.9291ZM 34.7409 39.9648L 34.5243 40.0895L 34.5921 40.2075L 34.728 40.2145L 34.7409 39.9648ZM 24.5767 22.3006L 24.3543 22.1864L 24.2921 22.3074L 24.36 22.4252L 24.5767 22.3006ZM 35.1909 60.272L 35.4157 60.1622L 35.412 60.1552L 35.1909 60.272ZM 33.4395 65.3741L 33.5493 65.5987L 33.5493 65.5987L 33.4395 65.3741ZM 28.3367 63.6227L 28.1113 63.7308L 28.1121 63.7326L 28.3367 63.6227ZM 28.1981 63.3013L 27.9611 63.3814L 27.9645 63.3904L 28.1981 63.3013ZM 23.5624 49.5791L 23.4375 49.3625L 23.2599 49.4649L 23.3255 49.6591L 23.5624 49.5791ZM 28.1481 46.9363L 28.3692 46.8195L 28.248 46.5901L 28.0233 46.7197L 28.1481 46.9363ZM 21.8837 24.7863L 22.1004 24.6615L 21.9759 24.4453L 21.7595 24.5693L 21.8837 24.7863ZM 31.2409 41.0363L 31.3656 41.2529L 31.5823 41.1282L 31.4575 40.9115L 31.2409 41.0363ZM 25.4837 44.3505L 25.2673 44.4756L 25.3921 44.6918L 25.6085 44.5672L 25.4837 44.3505ZM 16.098 28.1005L 15.9738 27.8836L 15.7561 28.0083L 15.8815 28.2256L 16.098 28.1005ZM 6.3552 50.722L 6.57287 50.599L 6.57189 50.5973L 6.3552 50.722ZM 10.9545 54.2934L 11.0197 54.0521L 11.0197 54.0521L 10.9545 54.2934ZM 12.9409 54.5577L 12.9406 54.8077L 12.9412 54.8077L 12.9409 54.5577ZM 16.7123 53.5434L 16.8376 53.7598L 16.838 53.7596L 16.7123 53.5434ZM 20.3981 51.4006L 20.6348 51.3204L 20.5367 51.0308L 20.2724 51.1844L 20.3981 51.4006ZM 24.8123 64.4291L 25.0491 64.3489L 25.0491 64.3489L 24.8123 64.4291ZM 34.1773 69.0541L 34.2576 69.2909L 34.2576 69.2909L 34.1773 69.0541ZM 38.8023 59.6891L 38.5655 59.7692L 38.5656 59.7694L 38.8023 59.6891ZM 38.3402 58.6149L 38.1191 58.7315L 38.1191 58.7316L 38.3402 58.6149ZM 31.2409 45.1577L 31.1159 44.9412L 30.9075 45.0616L 31.0198 45.2744L 31.2409 45.1577ZM 34.0981 43.5077L 34.111 43.258L 34.0371 43.2542L 33.973 43.2912L 34.0981 43.5077ZM 55.3838 44.6077L 55.4001 44.3582L 55.3967 44.358L 55.3838 44.6077ZM 57.2816 42.942L 57.0322 42.9255L 57.0322 42.9257L 57.2816 42.942ZM 57.2688 42.5863L 57.5164 42.5518L 57.5163 42.551L 57.2688 42.5863ZM 33.6331 1.50772L 33.4776 1.70353L 33.4782 1.70394L 33.6331 1.50772ZM 31.1245 1.79629L 30.9288 1.64075L 30.9284 1.64123L 31.1245 1.79629ZM 30.9338 2.09343L 31.1562 2.20764L 31.1565 2.20705L 30.9338 2.09343ZM 21.1909 21.0649L 21.3156 21.2816L 21.3796 21.2448L 21.4133 21.1791L 21.1909 21.0649ZM 3.8052 31.0649L 3.68055 30.8481L 3.68034 30.8483L 3.8052 31.0649ZM 1.01234 41.4363L 0.795604 41.5609L 0.795654 41.561L 1.01234 41.4363ZM 57.5948 23.5213L 67.4083 22.807L 67.372 22.3083L 57.5585 23.0226L 57.5948 23.5213ZM 67.4086 22.807C 68.2574 22.7443 68.9962 23.381 69.0595 24.2299L 69.5581 24.1927C 69.4742 23.0686 68.4959 22.2253 67.3718 22.3084L 67.4086 22.807ZM 69.0594 24.2297C 69.1221 25.0784 68.4848 25.8171 67.6361 25.8798L 67.6729 26.3784C 68.797 26.2954 69.6411 25.317 69.5581 24.1928L 69.0594 24.2297ZM 67.6363 25.8798L 57.8228 26.5941L 57.8591 27.0927L 67.6726 26.3785L 67.6363 25.8798ZM 57.8409 26.5934L 57.7052 26.5934L 57.7052 27.0934L 57.8409 27.0934L 57.8409 26.5934ZM 57.6962 26.5936C 56.8478 26.6243 56.1358 25.9615 56.105 25.1129L 55.6054 25.131C 55.6461 26.2553 56.5897 27.1339 57.7142 27.0932L 57.6962 26.5936ZM 56.105 25.1129C 56.0743 24.2646 56.7371 23.5525 57.5857 23.5218L 57.5676 23.0221C 56.4433 23.0628 55.5646 24.0065 55.6054 25.131L 56.105 25.1129ZM 47.7834 9.08404L 53.3334 0.9269L 52.92 0.645636L 47.37 8.80278L 47.7834 9.08404ZM 53.3334 0.926806C 53.8135 0.22049 54.7758 0.0376446 55.4825 0.518027L 55.7636 0.10451C 54.8289 -0.530822 53.5555 -0.289382 52.9199 0.64573L 53.3334 0.926806ZM 55.4823 0.517886C 56.1884 0.998832 56.3716 1.96063 55.8913 2.66716L 56.3048 2.94824C 56.9403 2.01334 56.6978 0.740848 55.7638 0.104651L 55.4823 0.517886ZM 55.892 2.66615L 50.3134 10.7876L 50.7256 11.0707L 56.3042 2.94924L 55.892 2.66615ZM 50.3131 10.7881C 49.8344 11.4886 48.8785 11.669 48.1784 11.1906L 47.8963 11.6034C 48.8248 12.2379 50.0917 11.9983 50.7259 11.0702L 50.3131 10.7881ZM 48.1783 11.1905C 47.4774 10.712 47.2973 9.75672 47.7754 9.05568L 47.3622 8.774C 46.7288 9.70296 46.9674 10.9692 47.8964 11.6035L 48.1783 11.1905ZM 47.3277 8.98113L 47.3356 9.0097L 47.8177 8.87712L 47.8098 8.84855L 47.3277 8.98113ZM 53.5156 15.6601L 62.0442 10.7529L 61.7948 10.3195L 53.2663 15.2267L 53.5156 15.6601ZM 62.0341 10.7584C 62.7879 10.3696 63.7137 10.665 64.1032 11.4182L 64.5473 11.1885C 64.0311 10.1903 62.804 9.79863 61.8049 10.3141L 62.0341 10.7584ZM 64.103 11.418C 64.4674 12.1245 64.2333 12.9913 63.5631 13.4182L 63.8317 13.8399C 64.72 13.2741 65.0302 12.1251 64.5474 11.1888L 64.103 11.418ZM 63.5732 13.4121L 55.0454 18.2907L 55.2937 18.7247L 63.8215 13.8461L 63.5732 13.4121ZM 55.0723 18.2773C 54.2902 18.6073 53.3903 18.2418 53.0598 17.4603L 52.5993 17.6551C 53.0373 18.6907 54.2303 19.1752 55.2667 18.738L 55.0723 18.2773ZM 53.0598 17.4603C 52.7871 16.8154 52.9855 16.0672 53.5426 15.6421L 53.2393 15.2446C 52.5007 15.8081 52.2377 16.8 52.5993 17.655L 53.0598 17.4603ZM 5.70784 34.3887L 13.1514 30.1029L 12.9019 29.6696L 5.45835 33.9553L 5.70784 34.3887ZM 12.8099 30.0109L 22.1664 46.2831L 22.5998 46.0338L 13.2434 29.7617L 12.8099 30.0109ZM 22.2583 45.9418L 14.8162 50.2275L 15.0657 50.6608L 22.5079 46.3751L 22.2583 45.9418ZM 14.8167 50.2272C 13.0129 51.2601 10.7128 50.6358 9.6793 48.832L 9.24546 49.0806C 10.4163 51.124 13.0219 51.8311 15.0652 50.6611L 14.8167 50.2272ZM 9.67039 48.8176C 9.6743 48.8235 9.67698 48.8282 9.67836 48.8308C 9.67947 48.8328 9.6802 48.8343 9.67884 48.8316L 9.23163 49.0552C 9.23377 49.0595 9.2433 49.0775 9.25437 49.095L 9.67039 48.8176ZM 9.67193 48.8188L 4.32907 39.533L 3.89569 39.7824L 9.23855 49.0681L 9.67193 48.8188ZM 4.32906 39.533C 3.29207 37.731 3.90909 35.4293 5.70829 34.3884L 5.4579 33.9556C 3.41996 35.1347 2.72126 37.7416 3.8957 39.7824L 4.32906 39.533ZM 32.9434 5.88395C 43.5531 14.8927 50.6782 27.2742 53.1377 40.9734L 53.6299 40.8849C 51.1479 27.1027 43.9373 14.5727 33.2671 5.50289L 32.9434 5.88395ZM 53.3967 40.6795L 34.7539 39.7152L 34.728 40.2145L 53.3709 41.1788L 53.3967 40.6795ZM 34.9576 39.8402L 24.7933 22.1759L 24.36 22.4252L 34.5243 40.0895L 34.9576 39.8402ZM 24.799 22.4148L 33.3276 5.80763L 32.8828 5.57921L 24.3543 22.1864L 24.799 22.4148ZM 34.9663 60.3818C 35.8307 62.1506 35.0978 64.2852 33.3297 65.1495L 33.5493 65.5987C 35.5655 64.6131 36.4012 62.1791 35.4156 60.1622L 34.9663 60.3818ZM 33.3298 65.1495C 31.5609 66.0139 29.4263 65.281 28.5612 63.5128L 28.1121 63.7326C 29.0985 65.7487 31.5324 66.5844 33.5493 65.5987L 33.3298 65.1495ZM 28.5621 63.5146C 28.5134 63.4132 28.4711 63.3156 28.4317 63.2122L 27.9645 63.3904C 28.008 63.5041 28.0585 63.6208 28.1113 63.7308L 28.5621 63.5146ZM 28.4349 63.2213L 23.7992 49.4991L 23.3255 49.6591L 27.9612 63.3813L 28.4349 63.2213ZM 23.6872 49.7957L 28.2729 47.1529L 28.0233 46.7197L 23.4375 49.3625L 23.6872 49.7957ZM 27.927 47.053L 34.9699 60.3887L 35.412 60.1552L 28.3692 46.8195L 27.927 47.053ZM 21.6671 24.911L 31.0242 41.161L 31.4575 40.9115L 22.1004 24.6615L 21.6671 24.911ZM 31.1162 40.8196L 25.359 44.1339L 25.6085 44.5672L 31.3656 41.2529L 31.1162 40.8196ZM 25.7002 44.2255L 16.3145 27.9755L 15.8815 28.2256L 25.2673 44.4756L 25.7002 44.2255ZM 16.2223 28.3175L 22.008 25.0032L 21.7595 24.5693L 15.9738 27.8836L 16.2223 28.3175ZM 6.13754 50.845C 7.16402 52.6618 8.87535 53.9909 10.8893 54.5348L 11.0197 54.0521C 9.13505 53.5431 7.53353 52.2994 6.57286 50.599L 6.13754 50.845ZM 10.8893 54.5348C 11.5532 54.7136 12.2536 54.8064 12.9406 54.8077L 12.9412 54.3077C 12.2868 54.3076 11.6515 54.2233 11.0197 54.0521L 10.8893 54.5348ZM 12.9412 54.8077C 14.298 54.8041 15.6618 54.4379 16.8376 53.7598L 16.5871 53.3271C 15.4701 53.9761 14.2324 54.3085 12.9406 54.3077L 12.9412 54.8077ZM 16.838 53.7596L 20.5237 51.6167L 20.2724 51.1844L 16.5867 53.3273L 16.838 53.7596ZM 20.1613 51.4808L 24.5756 64.5094L 25.0491 64.3489L 20.6348 51.3204L 20.1613 51.4808ZM 24.5756 64.5093C 25.9284 68.5038 30.264 70.6438 34.2576 69.2909L 34.0971 68.8174C 30.365 70.0817 26.3134 68.0817 25.0491 64.3489L 24.5756 64.5093ZM 34.2576 69.2909C 38.2511 67.9373 40.3927 63.6026 39.0391 59.6089L 38.5656 59.7694C 39.8305 63.5014 37.8293 67.5524 34.0971 68.8174L 34.2576 69.2909ZM 39.0392 59.6091C 38.9107 59.2295 38.7478 58.8519 38.5613 58.4981L 38.1191 58.7316C 38.2969 59.0678 38.444 59.4087 38.5655 59.7692L 39.0392 59.6091ZM 38.5613 58.4982L 31.462 45.0411L 31.0198 45.2744L 38.1191 58.7315L 38.5613 58.4982ZM 31.3659 45.3742L 34.2231 43.7242L 33.973 43.2912L 31.1159 44.9412L 31.3659 45.3742ZM 34.0852 43.7574L 55.3709 44.8574L 55.3967 44.358L 34.111 43.258L 34.0852 43.7574ZM 55.3675 44.8572C 56.4897 44.9305 57.4578 44.0802 57.5311 42.9583L 57.0322 42.9257C 56.9769 43.7723 56.2465 44.4135 55.4001 44.3582L 55.3675 44.8572ZM 57.5311 42.9585C 57.5395 42.8272 57.5343 42.6824 57.5164 42.5518L 57.0212 42.6208C 57.0362 42.7259 57.0395 42.8196 57.0322 42.9255L 57.5311 42.9585ZM 57.5163 42.551C 55.1936 26.2682 46.6976 11.5027 33.788 1.31149L 33.4782 1.70394C 46.2871 11.8156 54.7168 26.4658 57.0213 42.6216L 57.5163 42.551ZM 33.7885 1.3119C 32.9081 0.613139 31.6281 0.760683 30.9288 1.64075L 31.3202 1.95182C 31.848 1.28761 32.8137 1.17658 33.4776 1.70353L 33.7885 1.3119ZM 30.9284 1.64123C 30.8482 1.74313 30.7706 1.86387 30.7111 1.97981L 31.1565 2.20705C 31.2041 2.11299 31.2551 2.03373 31.3206 1.95135L 30.9284 1.64123ZM 30.7114 1.97922L 20.9685 20.9506L 21.4133 21.1791L 31.1562 2.20764L 30.7114 1.97922ZM 21.0663 20.8481L 3.68055 30.8481L 3.92985 31.2816L 21.3156 21.2816L 21.0663 20.8481ZM 3.68034 30.8483C -0.072033 33.0115 -1.36315 37.8056 0.795604 41.5609L 1.22908 41.3117C -0.792166 37.7956 0.416722 33.3068 3.93006 31.2814L 3.68034 30.8483ZM 0.795654 41.561L 6.13851 50.8467L 6.57189 50.5973L 1.22904 41.3116L 0.795654 41.561Z"/>
</defs>
</svg>
