<svg width="219" height="201" viewBox="0 0 219 201" version="1.1" xmlns="http://www.w3.org/2000/svg" xmlns:xlink="http://www.w3.org/1999/xlink">
<title>pay</title>
<desc>Created using Figma</desc>
<g id="Canvas" transform="matrix(3 0 0 3 -6120 -2277)">
<g id="pay">
<g id="Fill 1">
<use xlink:href="#path0_fill" transform="translate(2040 759)" fill="#40C18E"/>
</g>
</g>
</g>
<defs>
<path id="path0_fill" fill-rule="evenodd" d="M 65.3577 33.3091L 55.9726 24.0925L 44.748 13.021C 44.6795 12.9659 44.6066 12.9181 44.5293 12.8761C 44.4477 12.8094 44.3617 12.75 44.267 12.7022C 44.1854 12.6949 44.1023 12.6949 44.0192 12.7022C 43.8414 12.6341 43.6446 12.6341 43.4653 12.7022C 43.3735 12.6935 43.2817 12.6935 43.1884 12.7022C 43.1053 12.7427 43.0295 12.792 42.9552 12.8471C 42.8721 12.892 42.7949 12.9456 42.722 13.0065L 32.1839 23.1506C 30.7205 24.5562 28.4001 24.5562 26.9367 23.1506C 26.2663 22.5187 25.8946 21.6347 25.9164 20.716C 25.9587 19.7494 26.4149 18.848 27.1699 18.2379L 37.2707 8.45614C 44.7932 1.18139 56.7422 1.08574 64.3812 8.23877C 71.4022 14.9889 71.8322 26.0387 65.3577 33.3091ZM 63.7545 40.8592C 62.294 42.2461 59.9955 42.2461 58.5365 40.8592C 58.3893 40.7244 58.2158 40.6201 58.0263 40.5549L 48.2025 31.0629C 47.5845 30.5499 46.6662 30.6325 46.1488 31.247C 45.6882 31.7977 45.6998 32.599 46.1765 33.1352L 56.3793 43.0185C 57.7552 44.3198 57.8106 46.4848 56.5017 47.8543C 56.4609 47.8949 56.4216 47.9354 56.3793 47.9746C 55.0792 49.2078 53.0867 49.36 51.6131 48.3369C 51.5111 48.2209 51.4236 48.0905 51.307 47.9746L 41.1042 38.0913C 40.5707 37.4914 39.6496 37.4349 39.0461 37.9653C 38.4442 38.4957 38.3873 39.4101 38.9193 40.0115C 38.9689 40.0651 39.0228 40.1173 39.0782 40.1636L 48.8584 49.6121C 48.9327 49.7744 49.0376 49.9208 49.1659 50.0469C 49.3102 50.1918 49.472 50.2932 49.6309 50.4091C 50.1104 51.0062 50.3727 51.7467 50.3742 52.5104C 50.3698 53.477 49.9573 54.3958 49.2373 55.0464C 48.3205 55.9101 47.0291 56.2579 45.7975 55.9739C 45.8033 54.2537 45.1037 52.6046 43.859 51.4091C 42.3825 50.0237 40.3667 49.3556 38.3494 49.5831C 38.689 47.5963 37.9661 45.5762 36.44 44.2502C 34.9985 42.8779 33.0148 42.2185 31.0325 42.4533C 31.3474 40.4998 30.639 38.5232 29.1523 37.2074C 27.7108 35.835 25.727 35.1756 23.7448 35.4104C 24.0596 33.4569 23.3512 31.4803 21.8645 30.1645C 19.2614 27.6864 15.1554 27.6864 12.5508 30.1645L 8.17815 34.5119C 4.80829 30.9021 2.92806 26.1633 2.9164 21.2377C 2.85664 16.4279 4.77331 11.8008 8.22188 8.42715C 15.3303 1.62047 26.4325 1.16689 34.0788 7.36927L 25.1877 16.0642C 22.5802 18.2408 22.2391 22.1072 24.4284 24.7012C 24.5843 24.8837 24.7505 25.0591 24.9254 25.2228C 27.5198 27.698 31.6155 27.698 34.21 25.2228L 43.7278 16.0207L 53.9306 26.1648L 63.7982 35.9031C 65.1625 37.216 65.1989 39.3811 63.8769 40.7389C 63.8376 40.7795 63.7968 40.8201 63.7545 40.8592ZM 41.8475 58.4664L 37.4748 62.8139C 36.0041 64.2152 33.6852 64.2152 32.2131 62.8139C 31.5076 62.127 31.1082 61.1879 31.1053 60.2054C 31.0499 59.2591 31.3997 58.3317 32.0673 57.6549L 36.4399 53.3074C 37.9689 51.9351 40.3068 51.9713 41.7892 53.3944C 43.1942 54.6899 43.2759 56.8724 41.9713 58.2679C 41.9232 58.3215 41.8722 58.3722 41.8198 58.423L 41.8475 58.4664ZM 30.0415 55.5681C 28.5708 56.9694 26.2504 56.9694 24.7797 55.5681C 23.4038 54.2436 23.3674 52.0597 24.6996 50.6917C 24.7273 50.6641 24.7535 50.6381 24.7797 50.612L 29.1524 46.2645C 30.623 44.8646 32.9435 44.8646 34.4141 46.2645C 35.7901 47.589 35.8265 49.7729 34.4943 51.1409C 34.4681 51.1684 34.4418 51.1945 34.4141 51.2206L 30.0415 55.5681ZM 17.4919 48.5252C 16.116 47.1992 16.0795 45.0168 17.4117 43.6488C 17.4394 43.6213 17.4657 43.5952 17.4919 43.5691L 21.8645 39.2217C 23.3323 37.8131 25.6585 37.8131 27.1263 39.2217C 28.5022 40.5462 28.5387 42.7301 27.2065 44.0981C 27.1802 44.1256 27.154 44.1517 27.1263 44.1778L 22.7536 48.5252C 21.283 49.9251 18.9626 49.9251 17.4919 48.5252ZM 10.2041 41.4823C 8.82812 40.1578 8.79168 37.9739 10.1239 36.6045C 10.1516 36.5784 10.1778 36.5523 10.2041 36.5262L 14.5767 32.1787C 16.0474 30.7774 18.3678 30.7774 19.8385 32.1787C 21.2144 33.5033 21.2508 35.6871 19.9186 37.0551C 19.8924 37.0827 19.8661 37.1088 19.8385 37.1349L 15.4658 41.4823C 13.9951 42.8822 11.6747 42.8822 10.2041 41.4823ZM 72.8788 21.3246C 72.889 15.6062 70.551 10.1313 66.4072 6.16645C 58.0351 -1.75173 44.9915 -2.08358 36.2214 5.3984C 27.4469 -1.99953 14.4631 -1.58652 6.1813 6.35484C 2.16866 10.2734 -0.0613883 15.6468 0.00128627 21.2377C 0.00274382 27.1589 2.35523 32.841 6.54568 37.0479C 5.74549 39.3463 6.37223 41.8982 8.14899 43.5691C 9.40102 44.769 11.0743 45.4356 12.8131 45.424C 13.0668 45.4385 13.3189 45.4385 13.5711 45.424C 13.2562 47.3775 13.9661 49.3556 15.4513 50.67C 16.7048 51.8684 18.3781 52.5336 20.1155 52.5249C 20.3676 52.5394 20.6212 52.5394 20.8734 52.5249C 20.5586 54.4783 21.2669 56.455 22.7536 57.7708C 24.0057 58.9707 25.6789 59.6359 27.4178 59.6257C 27.6743 59.5634 27.9279 59.4852 28.1757 59.3939C 28.1641 59.6113 28.1641 59.8286 28.1757 60.046C 28.2646 63.7109 31.3226 66.6107 35.0087 66.5223C 36.6222 66.4846 38.1658 65.8672 39.3551 64.7847L 43.7278 60.4373C 44.235 59.9359 44.6533 59.3519 44.9667 58.7128C 47.223 59.304 49.625 58.6823 51.307 57.0752C 52.7835 55.7666 53.4904 53.8016 53.1873 51.8583L 53.7557 51.8583C 55.5077 51.8626 57.1912 51.1859 58.449 49.9744C 59.9415 48.6339 60.6455 46.6297 60.3147 44.656C 62.3436 44.9791 64.4031 44.3038 65.8388 42.8445C 67.8152 40.9708 68.3502 38.0449 67.1652 35.5988C 70.8192 31.7324 72.8613 26.6314 72.8788 21.3246Z"/>
</defs>
</svg>
