<svg width="47" height="30" viewBox="0 0 47 30" version="1.1" xmlns="http://www.w3.org/2000/svg" xmlns:xlink="http://www.w3.org/1999/xlink">
<title>software_transform_bezier</title>
<desc>Created using Figma</desc>
<g id="Canvas" transform="translate(-1539 -98)">
<g id="software_transform_bezier">
<g id="Vector">
<use xlink:href="#path0_stroke" transform="translate(1540 119.361)" fill="#219653"/>
</g>
<g id="Vector">
<use xlink:href="#path0_stroke" transform="translate(1577.82 119.361)" fill="#219653"/>
</g>
<g id="Vector">
<use xlink:href="#path0_stroke" transform="translate(1558.91 99)" fill="#219653"/>
</g>
<g id="Vector">
<use xlink:href="#path1_stroke" transform="translate(1540 100.454)" fill="#219653"/>
</g>
<g id="Vector">
<use xlink:href="#path1_stroke" transform="translate(1580.73 100.454)" fill="#219653"/>
</g>
<g id="Vector">
<use xlink:href="#path2_stroke" transform="translate(1543.64 102.636)" fill="#219653"/>
</g>
<g id="Vector">
<use xlink:href="#path3_stroke" transform="translate(1566.18 102.636)" fill="#219653"/>
</g>
</g>
</g>
<defs>
<path id="path0_stroke" d="M 0 0L 0 -0.727256L -0.727256 -0.727256L -0.727256 0L 0 0ZM 7.27331 0L 8.00056 0L 8.00056 -0.727256L 7.27331 -0.727256L 7.27331 0ZM 7.27331 7.27182L 7.27331 7.99907L 8.00056 7.99907L 8.00056 7.27182L 7.27331 7.27182ZM 0 7.27182L -0.727256 7.27182L -0.727256 7.99907L 0 7.99907L 0 7.27182ZM 0 0.727256L 7.27331 0.727256L 7.27331 -0.727256L 0 -0.727256L 0 0.727256ZM 6.54605 0L 6.54605 7.27182L 8.00056 7.27182L 8.00056 0L 6.54605 0ZM 7.27331 6.54456L 0 6.54456L 0 7.99907L 7.27331 7.99907L 7.27331 6.54456ZM 0.727256 7.27182L 0.727256 0L -0.727256 0L -0.727256 7.27182L 0.727256 7.27182Z"/>
<path id="path1_stroke" d="M 3.63673 2.18155C 3.63673 2.98459 2.98556 3.63583 2.18199 3.63583L 2.18199 5.09035C 3.78859 5.09035 5.09124 3.78817 5.09124 2.18155L 3.63673 2.18155ZM 2.18199 3.63583C 1.37842 3.63583 0.727256 2.98459 0.727256 2.18155L -0.727256 2.18155C -0.727256 3.78817 0.575399 5.09035 2.18199 5.09035L 2.18199 3.63583ZM 0.727256 2.18155C 0.727256 1.3785 1.37842 0.727256 2.18199 0.727256L 2.18199 -0.727256C 0.575399 -0.727256 -0.727256 0.574918 -0.727256 2.18155L 0.727256 2.18155ZM 2.18199 0.727256C 2.98556 0.727256 3.63673 1.3785 3.63673 2.18155L 5.09124 2.18155C 5.09124 0.574918 3.78859 -0.727256 2.18199 -0.727256L 2.18199 0.727256Z"/>
<path id="path2_stroke" d="M 0.727331 0.727256L 15.2739 0.727256L 15.2739 -0.727256L 0.727331 -0.727256L 0.727331 0.727256ZM 15.2739 -0.727256C 7.28702 -0.727256 3.24549 3.68528 1.24769 8.06051C 0.265763 10.2201 -0.237165 12.4081 -0.48032 14.0024C -0.602606 14.808 -0.665375 15.4924 -0.695882 15.9592C -0.711307 16.1964 -0.719328 16.3887 -0.723191 16.5152C -0.725162 16.5803 -0.726215 16.633 -0.726711 16.6665C -0.726969 16.6841 -0.727114 16.6989 -0.727179 16.7078C -0.727214 16.7127 -0.727235 16.7171 -0.727244 16.7195C -0.727249 16.721 -0.727253 16.7224 -0.727254 16.7231C -0.727255 16.7236 -0.727256 16.7241 -0.727256 16.7243C -0.727256 16.7248 -0.727256 16.7252 0 16.7252C 0.727256 16.7252 0.727256 16.7254 0.727256 16.7256C 0.727256 16.7256 0.727256 16.7258 0.727256 16.7257C 0.727256 16.7254 0.727257 16.7253 0.727259 16.7247C 0.727264 16.7232 0.727272 16.7215 0.727295 16.7183C 0.727347 16.7112 0.727435 16.7019 0.727643 16.6879C 0.72808 16.6581 0.728891 16.6169 0.730649 16.5595C 0.734244 16.441 0.741139 16.2739 0.755546 16.0539C 0.784703 15.6059 0.841261 14.9837 0.957631 14.2213C 1.19179 12.6796 1.64348 10.6864 2.5708 8.66467C 4.39148 4.67731 7.98693 0.727256 15.2739 0.727256L 15.2739 -0.727256Z"/>
<path id="path3_stroke" d="M 14.5466 -0.727256L 0 -0.727256L 0 0.727256L 14.5466 0.727256L 14.5466 -0.727256ZM 0 0.727256C 7.28702 0.727256 10.8825 4.67731 12.7032 8.66467C 13.6305 10.6864 14.0822 12.6796 14.3163 14.2213C 14.4327 14.9837 14.4892 15.6059 14.5184 16.0539C 14.5328 16.2739 14.5397 16.441 14.5433 16.5595C 14.5451 16.6169 14.5459 16.6581 14.5463 16.6879C 14.5465 16.7019 14.5466 16.7112 14.5467 16.7183C 14.5467 16.7215 14.5467 16.7232 14.5467 16.7247C 14.5467 16.7253 14.5467 16.7254 14.5467 16.7257C 14.5467 16.7258 14.5467 16.7256 14.5467 16.7256C 14.5467 16.7254 14.5467 16.7252 15.2739 16.7252C 16.0012 16.7252 16.0012 16.7248 16.0012 16.7243C 16.0012 16.7241 16.0012 16.7236 16.0012 16.7231C 16.0012 16.7224 16.0012 16.721 16.0012 16.7195C 16.0012 16.7171 16.0012 16.7127 16.0011 16.7078C 16.0011 16.6989 16.0009 16.6841 16.0007 16.6665C 16.0002 16.633 15.9991 16.5803 15.9971 16.5152C 15.9933 16.3887 15.9853 16.1964 15.9698 15.9592C 15.9393 15.4924 15.8766 14.808 15.7543 14.0024C 15.5111 12.4081 15.0082 10.2201 14.0263 8.06051C 12.0285 3.68528 7.98693 -0.727256 0 -0.727256L 0 0.727256Z"/>
</defs>
</svg>
