<svg width="45" height="45" viewBox="0 0 84 84" version="1.1" xmlns="http://www.w3.org/2000/svg" xmlns:xlink="http://www.w3.org/1999/xlink">
<title>basic_world</title>
<desc>Created using Figma</desc>
<g id="Canvas" transform="matrix(2 0 0 2 -3084 424)">
<g id="basic_world">
<g id="Vector">
<use xlink:href="#path0_stroke" transform="translate(1543 -211)" fill="#EB5757"/>
</g>
<g id="Vector">
<use xlink:href="#path1_stroke" transform="translate(1563 -210.927)" fill="#EB5757"/>
</g>
<g id="Vector">
<use xlink:href="#path2_stroke" transform="translate(1543.07 -191.007)" fill="#EB5757"/>
</g>
<g id="Vector">
<use xlink:href="#path3_stroke" transform="translate(1552.72 -210.927)" fill="#EB5757"/>
</g>
<g id="Vector">
<use xlink:href="#path4_stroke" transform="translate(1564.29 -210.927)" fill="#EB5757"/>
</g>
<g id="Vector">
<use xlink:href="#path5_stroke" transform="translate(1547.57 -203.859)" fill="#EB5757"/>
</g>
<g id="Vector">
<use xlink:href="#path6_stroke" transform="translate(1547.57 -184.581)" fill="#EB5757"/>
</g>
</g>
</g>
<defs>
<path id="path0_stroke" d="M 40.0042 19.9933L 39.3614 19.9933L 39.3614 19.9934L 40.0042 19.9933ZM 20.0018 39.9867L 20.0018 39.3439L 20.0017 39.3439L 20.0018 39.9867ZM 3.18824e-07 19.994L 0.64275 19.994L 0.64275 19.9939L 3.18824e-07 19.994ZM 20.0024 0.64275C 30.6952 0.64275 39.362 9.30609 39.3614 19.9933L 40.6469 19.9934C 40.6476 8.59558 31.4046 -0.64275 20.0024 -0.64275L 20.0024 0.64275ZM 39.3614 19.9934C 39.362 30.6813 30.6946 39.3452 20.0018 39.3439L 20.0017 40.6294C 31.404 40.6308 40.6476 31.3917 40.6469 19.9933L 39.3614 19.9934ZM 20.0017 39.3439C 9.30831 39.3446 0.642128 30.6813 0.64275 19.994L -0.642749 19.994C -0.643413 31.3917 8.59889 40.6301 20.0018 40.6294L 20.0017 39.3439ZM 0.64275 19.9939C 0.640883 9.30613 9.30825 0.64275 20.0024 0.64275L 20.0024 -0.64275C 8.59896 -0.64275 -0.64474 8.59554 -0.642749 19.9941L 0.64275 19.9939Z"/>
<path id="path1_stroke" d="M -0.64275 0L -0.64275 39.8415L 0.64275 39.8415L 0.64275 0L -0.64275 0Z"/>
<path id="path2_stroke" d="M 39.8595 -0.64275L 0 -0.64275L 0 0.64275L 39.8595 0.64275L 39.8595 -0.64275Z"/>
<path id="path3_stroke" d="M 9.00053 0C 8.60354 -0.505493 8.60329 -0.505295 8.603 -0.505069C 8.60286 -0.504958 8.60254 -0.504705 8.60225 -0.504482C 8.60184 -0.504152 8.60099 -0.503482 8.60015 -0.50282C 8.59877 -0.501725 8.59625 -0.499733 8.5935 -0.497541C 8.58858 -0.493623 8.58035 -0.487025 8.57064 -0.479181C 8.5524 -0.464438 8.52348 -0.440819 8.48808 -0.411344C 8.41967 -0.354343 8.31534 -0.265605 8.18718 -0.151931C 7.93573 0.0712555 7.56749 0.413243 7.13449 0.856071C 6.27856 1.73234 5.11507 3.06316 3.96554 4.78419C 1.68802 8.20282 -0.628335 13.3593 -0.64275 19.9207L 0.64275 19.9207C 0.628335 13.6301 2.81225 8.8262 5.03499 5.49748C 6.1356 3.84484 7.22224 2.60524 8.05391 1.75451C 8.46471 1.33384 8.79964 1.02318 9.0404 0.809596C 9.15835 0.704885 9.2474 0.629207 9.31082 0.576388C 9.34134 0.550953 9.36296 0.533311 9.37879 0.520521C 9.38611 0.514598 9.39078 0.51086 9.39452 0.507886C 9.39609 0.506631 9.39684 0.506037 9.39764 0.505407C 9.39789 0.505207 9.39812 0.505029 9.39799 0.505129C 9.39798 0.505136 9.39786 0.505228 9.39786 0.505231C 9.39771 0.505349 9.39753 0.505493 9.00053 0ZM -0.64275 19.9207C -0.628335 26.4821 1.68802 31.6387 3.96554 35.0573C 5.11507 36.7783 6.27856 38.1091 7.13449 38.9854C 7.56749 39.4282 7.93573 39.7702 8.18718 39.9934C 8.31534 40.1071 8.41967 40.1958 8.48808 40.2528C 8.52348 40.2823 8.5524 40.3059 8.57064 40.3207C 8.58035 40.3285 8.58858 40.3351 8.5935 40.339C 8.59625 40.3412 8.59877 40.3432 8.60015 40.3443C 8.60099 40.345 8.60184 40.3456 8.60225 40.346C 8.60254 40.3462 8.60286 40.3464 8.603 40.3465C 8.60329 40.3468 8.60354 40.347 9.00053 39.8415C 9.39753 39.336 9.39771 39.3361 9.39786 39.3362C 9.39786 39.3362 9.39798 39.3363 9.39799 39.3363C 9.39812 39.3364 9.39789 39.3363 9.39764 39.3361C 9.39684 39.3354 9.39609 39.3348 9.39452 39.3336C 9.39078 39.3306 9.38611 39.3269 9.37879 39.3209C 9.36296 39.3082 9.34134 39.2905 9.31082 39.2651C 9.2474 39.2123 9.15835 39.1366 9.0404 39.0319C 8.79964 38.8183 8.46471 38.5076 8.05391 38.087C 7.22224 37.2362 6.1356 35.9966 5.03499 34.344C 2.81225 31.0153 0.628335 26.2114 0.64275 19.9207L -0.64275 19.9207Z"/>
<path id="path4_stroke" d="M 0 0C -0.396994 0.505493 -0.397177 0.505349 -0.397327 0.505231C -0.397331 0.505228 -0.397447 0.505136 -0.397456 0.505129C -0.397584 0.505029 -0.397357 0.505207 -0.397105 0.505407C -0.396308 0.506037 -0.395559 0.506631 -0.393984 0.507886C -0.39025 0.51086 -0.385579 0.514598 -0.378255 0.520521C -0.36243 0.533311 -0.340811 0.550953 -0.310288 0.576388C -0.246863 0.629207 -0.157815 0.704885 -0.0398655 0.809596C 0.200893 1.02318 0.53582 1.33384 0.946627 1.75451C 1.77829 2.60524 2.86493 3.84484 3.96554 5.49748C 6.18828 8.8262 8.3722 13.6301 8.35778 19.9207L 9.64328 19.9207C 9.62887 13.3593 7.31252 8.20282 5.03499 4.78419C 3.88547 3.06316 2.72198 1.73234 1.86604 0.856071C 1.43305 0.413243 1.06481 0.0712555 0.813349 -0.151931C 0.68519 -0.265605 0.580867 -0.354343 0.512449 -0.411344C 0.477049 -0.440819 0.448129 -0.464438 0.429894 -0.479181C 0.420188 -0.487025 0.411949 -0.493623 0.407031 -0.497541C 0.40428 -0.499733 0.401767 -0.501725 0.400383 -0.50282C 0.399546 -0.503482 0.398698 -0.504152 0.398278 -0.504482C 0.397996 -0.504705 0.397674 -0.504958 0.397533 -0.505069C 0.397246 -0.505295 0.396994 -0.505493 0 0ZM 8.35778 19.9207C 8.3722 26.2114 6.18828 31.0153 3.96554 34.344C 2.86493 35.9966 1.77829 37.2362 0.946627 38.087C 0.53582 38.5076 0.200893 38.8183 -0.0398655 39.0319C -0.157815 39.1366 -0.246863 39.2123 -0.310288 39.2651C -0.340811 39.2905 -0.36243 39.3082 -0.378255 39.3209C -0.385579 39.3269 -0.39025 39.3306 -0.393984 39.3336C -0.395559 39.3348 -0.396308 39.3354 -0.397105 39.3361C -0.397357 39.3363 -0.397584 39.3364 -0.397456 39.3363C -0.397447 39.3363 -0.397331 39.3362 -0.397327 39.3362C -0.397177 39.3361 -0.396994 39.336 0 39.8415C 0.396994 40.347 0.397246 40.3468 0.397533 40.3465C 0.397674 40.3464 0.397996 40.3462 0.398278 40.346C 0.398698 40.3456 0.399546 40.345 0.400383 40.3443C 0.401767 40.3432 0.40428 40.3412 0.407031 40.339C 0.411949 40.3351 0.420188 40.3285 0.429894 40.3207C 0.448129 40.3059 0.477049 40.2823 0.512449 40.2528C 0.580867 40.1958 0.68519 40.1071 0.813349 39.9934C 1.06481 39.7702 1.43305 39.4282 1.86604 38.9854C 2.72198 38.1091 3.88547 36.7783 5.03499 35.0573C 7.31252 31.6387 9.62887 26.4821 9.64328 19.9207L 8.35778 19.9207Z"/>
<path id="path5_stroke" d="M 0 0C -0.574841 0.287551 -0.574615 0.288002 -0.574376 0.288478C -0.57428 0.28867 -0.574028 0.289171 -0.573835 0.289554C -0.573592 0.290035 -0.573011 0.291185 -0.572523 0.292147C -0.571836 0.293498 -0.570361 0.296387 -0.568974 0.299082C -0.566785 0.303327 -0.562569 0.311419 -0.558114 0.319822C -0.550406 0.334329 -0.536769 0.359475 -0.520862 0.387746C -0.491583 0.439647 -0.44236 0.523398 -0.380372 0.621056C -0.262017 0.806936 -0.0667553 1.08907 0.195381 1.41074C 0.705951 2.03466 1.55446 2.90109 2.76932 3.74222C 5.21565 5.42858 9.20248 7.06879 15.4295 7.06879L 15.4295 5.78329C 9.44148 5.78329 5.71357 4.21048 3.49891 2.68382C 2.38327 1.91845 1.66473 1.17836 1.19086 0.597397C 0.960782 0.316624 0.809483 0.0967266 0.704331 -0.068818C 0.654566 -0.146872 0.622799 -0.201181 0.599027 -0.243411C 0.588408 -0.262205 0.582504 -0.273144 0.577302 -0.282954C 0.575302 -0.286709 0.574721 -0.287834 0.573727 -0.289767C 0.573522 -0.290161 0.573602 -0.29001 0.573706 -0.289806C 0.573613 -0.289988 0.574175 -0.288877 0.57413 -0.288967C 0.574224 -0.288779 0.574402 -0.288425 0.574449 -0.288331C 0.574639 -0.287953 0.574841 -0.287551 0 0ZM 15.4295 7.06879C 21.6565 7.06879 25.6433 5.42858 28.0897 3.74222C 29.3045 2.90109 30.153 2.03466 30.6636 1.41074C 30.9257 1.08907 31.121 0.806936 31.2393 0.621056C 31.3013 0.523398 31.3506 0.439647 31.3798 0.387746C 31.3957 0.359475 31.4094 0.334329 31.4171 0.319822C 31.4215 0.311419 31.4258 0.303327 31.4279 0.299082C 31.4293 0.296387 31.4308 0.293498 31.4315 0.292147C 31.432 0.291185 31.4326 0.290035 31.4328 0.289554C 31.433 0.289171 31.4333 0.28867 31.4333 0.288478C 31.4336 0.288002 31.4338 0.287551 30.859 0C 30.2841 -0.287551 30.2843 -0.287953 30.2845 -0.288331C 30.2846 -0.288425 30.2847 -0.288779 30.2848 -0.288967C 30.2848 -0.288877 30.2854 -0.289988 30.2853 -0.289806C 30.2854 -0.29001 30.2855 -0.290161 30.2852 -0.289767C 30.2843 -0.287834 30.2837 -0.286709 30.2817 -0.282954C 30.2765 -0.273144 30.2706 -0.262205 30.2599 -0.243411C 30.2362 -0.201181 30.2044 -0.146872 30.1546 -0.068818C 30.0495 0.0967266 29.8982 0.316624 29.6681 0.597397C 29.1942 1.17836 28.4757 1.91845 27.3601 2.68382C 25.1454 4.21048 21.4175 5.78329 15.4295 5.78329L 15.4295 7.06879Z"/>
<path id="path6_stroke" d="M 0 6.42604C 0.574841 6.71359 0.574639 6.714 0.574449 6.71437C 0.574402 6.71447 0.574224 6.71482 0.57413 6.71501C 0.574175 6.71492 0.573613 6.71603 0.573706 6.71585C 0.573602 6.71605 0.573522 6.7162 0.573727 6.71581C 0.574721 6.71388 0.575302 6.71275 0.577302 6.709C 0.582504 6.69919 0.588408 6.68825 0.599027 6.66945C 0.622799 6.62722 0.654566 6.57292 0.704331 6.49486C 0.809483 6.32932 0.960782 6.10942 1.19086 5.82865C 1.66473 5.24769 2.38327 4.5076 3.49891 3.74222C 5.71357 2.21556 9.44148 0.64275 15.4295 0.64275L 15.4295 -0.64275C 9.20248 -0.64275 5.21565 0.997462 2.76932 2.68382C 1.55446 3.52496 0.705951 4.39138 0.195381 5.0153C -0.0667553 5.33697 -0.262017 5.61911 -0.380372 5.80499C -0.44236 5.90264 -0.491583 5.9864 -0.520862 6.0383C -0.536769 6.06657 -0.550406 6.09171 -0.558114 6.10622C -0.562569 6.11462 -0.566785 6.12272 -0.568974 6.12696C -0.570361 6.12966 -0.571836 6.13254 -0.572523 6.1339C -0.573011 6.13486 -0.573592 6.13601 -0.573835 6.13649C -0.574028 6.13687 -0.57428 6.13737 -0.574376 6.13756C -0.574615 6.13804 -0.574841 6.13849 0 6.42604ZM 15.4295 0.64275C 21.4175 0.64275 25.1454 2.21556 27.3601 3.74222C 28.4757 4.5076 29.1942 5.24769 29.6681 5.82865C 29.8982 6.10942 30.0495 6.32932 30.1546 6.49486C 30.2044 6.57292 30.2362 6.62722 30.2599 6.66945C 30.2706 6.68825 30.2765 6.69919 30.2817 6.709C 30.2837 6.71275 30.2843 6.71388 30.2852 6.71581C 30.2855 6.7162 30.2854 6.71605 30.2853 6.71585C 30.2854 6.71603 30.2848 6.71492 30.2848 6.71501C 30.2847 6.71482 30.2846 6.71447 30.2845 6.71437C 30.2843 6.714 30.2841 6.71359 30.859 6.42604C 31.4338 6.13849 31.4336 6.13804 31.4333 6.13756C 31.4333 6.13737 31.433 6.13687 31.4328 6.13649C 31.4326 6.13601 31.432 6.13486 31.4315 6.1339C 31.4308 6.13254 31.4293 6.12966 31.4279 6.12696C 31.4258 6.12272 31.4215 6.11462 31.4171 6.10622C 31.4094 6.09171 31.3957 6.06657 31.3798 6.0383C 31.3506 5.9864 31.3013 5.90264 31.2393 5.80499C 31.121 5.61911 30.9257 5.33697 30.6636 5.0153C 30.153 4.39138 29.3045 3.52496 28.0897 2.68382C 25.6433 0.997462 21.6565 -0.64275 15.4295 -0.64275L 15.4295 0.64275Z"/>
</defs>
</svg>
