<svg width="35" height="42" viewBox="0 0 35 42" version="1.1" xmlns="http://www.w3.org/2000/svg" xmlns:xlink="http://www.w3.org/1999/xlink">
<title>basic_flag2</title>
<desc>Created using Figma</desc>
<g id="Canvas" transform="translate(-2383 -92)">
<g id="basic_flag2">
<g id="Vector">
<use xlink:href="#path0_stroke" transform="translate(2384 92)" fill="#F2C94C"/>
</g>
<g id="Vector">
<use xlink:href="#path1_stroke" transform="translate(2396.22 95.8555)" fill="#F2C94C"/>
</g>
<g id="Vector">
<use xlink:href="#path2_stroke" transform="translate(2384 95.8555)" fill="#F2C94C"/>
</g>
</g>
</g>
<defs>
<path id="path0_stroke" d="M -0.64275 0L -0.64275 41.1267L 0.64275 41.1267L 0.64275 0L -0.64275 0Z"/>
<path id="path1_stroke" d="M 0 3.21302L -0.408869 2.71708L -0.64275 2.9099L -0.64275 3.21302L 0 3.21302ZM 0 18.6355L -0.64275 18.6355L -0.64275 19.2783L 0 19.2783L 0 18.6355ZM 19.9298 18.6355L 19.9298 19.2783L 20.97 19.2783L 20.5046 18.348L 19.9298 18.6355ZM 16.0724 10.9243L 15.4975 10.6367L 15.3537 10.9243L 15.4975 11.2118L 16.0724 10.9243ZM 19.9298 3.21302L 20.5046 3.50057L 20.97 2.57027L 19.9298 2.57027L 19.9298 3.21302ZM 3.48836 -0.495937L -0.408869 2.71708L 0.408869 3.70896L 4.3061 0.495937L 3.48836 -0.495937ZM -0.64275 3.21302L -0.64275 18.6355L 0.64275 18.6355L 0.64275 3.21302L -0.64275 3.21302ZM 0 19.2783L 19.9298 19.2783L 19.9298 17.9928L 0 17.9928L 0 19.2783ZM 20.5046 18.348L 16.6472 10.6367L 15.4975 11.2118L 19.3549 18.9231L 20.5046 18.348ZM 16.6472 11.2118L 20.5046 3.50057L 19.3549 2.92547L 15.4975 10.6367L 16.6472 11.2118ZM 19.9298 2.57027L 0 2.57027L 0 3.85577L 19.9298 3.85577L 19.9298 2.57027Z"/>
<path id="path2_stroke" d="M 0 15.4225L -0.64275 15.4225L -0.64275 16.0653L 0 16.0653L 0 15.4225ZM 0 0L 0 -0.64275L -0.64275 -0.64275L -0.64275 0L 0 0ZM 16.0724 0L 16.7151 0L 16.7151 -0.64275L 16.0724 -0.64275L 16.0724 0ZM 12.215 14.7798L 0 14.7798L 0 16.0653L 12.215 16.0653L 12.215 14.7798ZM 0.64275 15.4225L 0.64275 0L -0.64275 0L -0.64275 15.4225L 0.64275 15.4225ZM 0 0.64275L 16.0724 0.64275L 16.0724 -0.64275L 0 -0.64275L 0 0.64275ZM 15.4296 0L 15.4296 3.21302L 16.7151 3.21302L 16.7151 0L 15.4296 0Z"/>
</defs>
</svg>
