<svg width="42" height="38" viewBox="0 0 42 38" version="1.1" xmlns="http://www.w3.org/2000/svg" xmlns:xlink="http://www.w3.org/1999/xlink">
<title>basic_message_txt</title>
<desc>Created using Figma</desc>
<g id="Canvas" transform="translate(-1963 -95)">
<g id="basic_message_txt">
<g id="Vector">
<use xlink:href="#path0_stroke" transform="translate(1969.79 103.069)" fill="#9B51E0"/>
</g>
<g id="Vector">
<use xlink:href="#path0_stroke" transform="translate(1969.79 109.495)" fill="#9B51E0"/>
</g>
<g id="Vector">
<use xlink:href="#path0_stroke" transform="translate(1969.79 115.921)" fill="#9B51E0"/>
</g>
<g id="Vector">
<use xlink:href="#path1_stroke" transform="translate(1964 96)" fill="#9B51E0"/>
</g>
</g>
</g>
<defs>
<path id="path0_stroke" d="M 0 0.64275L 28.2874 0.64275L 28.2874 -0.64275L 0 -0.64275L 0 0.64275Z"/>
<path id="path1_stroke" d="M 19.9298 26.9894L 19.9298 26.3466L 19.6921 26.3466L 19.5116 26.5013L 19.9298 26.9894ZM 39.8595 26.9894L 39.8595 27.6321L 40.5023 27.6321L 40.5023 26.9894L 39.8595 26.9894ZM 39.8595 0L 40.5023 0L 40.5023 -0.64275L 39.8595 -0.64275L 39.8595 0ZM 0 0L 0 -0.64275L -0.64275 -0.64275L -0.64275 0L 0 0ZM 0 26.9894L -0.64275 26.9894L -0.64275 27.6321L 0 27.6321L 0 26.9894ZM 10.9292 26.9894L 11.572 26.9894L 11.572 26.3466L 10.9292 26.3466L 10.9292 26.9894ZM 10.9292 34.7006L 10.2865 34.7006L 10.2865 36.0977L 11.3474 35.1887L 10.9292 34.7006ZM 19.9298 27.6321L 39.8595 27.6321L 39.8595 26.3466L 19.9298 26.3466L 19.9298 27.6321ZM 40.5023 26.9894L 40.5023 0L 39.2168 0L 39.2168 26.9894L 40.5023 26.9894ZM 39.8595 -0.64275L 0 -0.64275L 0 0.64275L 39.8595 0.64275L 39.8595 -0.64275ZM -0.64275 0L -0.64275 26.9894L 0.64275 26.9894L 0.64275 0L -0.64275 0ZM 0 27.6321L 10.9292 27.6321L 10.9292 26.3466L 0 26.3466L 0 27.6321ZM 10.2865 26.9894L 10.2865 34.7006L 11.572 34.7006L 11.572 26.9894L 10.2865 26.9894ZM 11.3474 35.1887L 20.3479 27.4775L 19.5116 26.5013L 10.511 34.2125L 11.3474 35.1887Z"/>
</defs>
</svg>
