<svg width="12" height="12" viewBox="0 0 16 16" version="1.1" xmlns="http://www.w3.org/2000/svg" xmlns:xlink="http://www.w3.org/1999/xlink">
<title>&#239;&#132;&#128;</title>
<desc>Created using Figma</desc>
<g id="Canvas" transform="translate(-3307 -557)">
<g id="&#239;&#132;&#128;">
<use xlink:href="#path0_fill" transform="translate(3307 550)" fill="#828282"/>
</g>
</g>
<defs>
<path id="path0_fill" d="M 9.64063 21.1406C 9.74479 21.2448 9.79687 21.3646 9.79687 21.5C 9.79687 21.6354 9.74479 21.7552 9.64063 21.8594L 8.85938 22.6406C 8.75521 22.7448 8.63542 22.7969 8.5 22.7969C 8.36458 22.7969 8.24479 22.7448 8.14063 22.6406L 0.859375 15.3594C 0.755208 15.2552 0.703125 15.1354 0.703125 15C 0.703125 14.8646 0.755208 14.7448 0.859375 14.6406L 8.14063 7.35938C 8.24479 7.25521 8.36458 7.20313 8.5 7.20313C 8.63542 7.20313 8.75521 7.25521 8.85938 7.35938L 9.64063 8.14062C 9.74479 8.24479 9.79687 8.36458 9.79687 8.5C 9.79687 8.63542 9.74479 8.75521 9.64063 8.85937L 3.5 15L 9.64063 21.1406ZM 15.6406 21.1406C 15.7448 21.2448 15.7969 21.3646 15.7969 21.5C 15.7969 21.6354 15.7448 21.7552 15.6406 21.8594L 14.8594 22.6406C 14.7552 22.7448 14.6354 22.7969 14.5 22.7969C 14.3646 22.7969 14.2448 22.7448 14.1406 22.6406L 6.85938 15.3594C 6.75521 15.2552 6.70312 15.1354 6.70312 15C 6.70312 14.8646 6.75521 14.7448 6.85938 14.6406L 14.1406 7.35938C 14.2448 7.25521 14.3646 7.20313 14.5 7.20313C 14.6354 7.20313 14.7552 7.25521 14.8594 7.35938L 15.6406 8.14062C 15.7448 8.24479 15.7969 8.36458 15.7969 8.5C 15.7969 8.63542 15.7448 8.75521 15.6406 8.85937L 9.5 15L 15.6406 21.1406Z"/>
</defs>
</svg>
