<svg width="30" height="30" viewBox="0 0 129 117" version="1.1" xmlns="http://www.w3.org/2000/svg" xmlns:xlink="http://www.w3.org/1999/xlink">
<title>pay</title>
<desc>Created using Figma</desc>
<g id="Canvas" transform="matrix(3 0 0 3 3708 729)">
<g id="pay">
<g id="Fill 1">
<use xlink:href="#path0_fill" transform="translate(-1236 -243)" fill="#FFFFFF"/>
</g>
</g>
</g>
<defs>
<path id="path0_fill" fill-rule="evenodd" d="M 38.5625 19.5275L 33.0251 14.1243L 26.4023 7.63356C 26.3619 7.60127 26.3189 7.57324 26.2733 7.5486C 26.2252 7.50952 26.1744 7.47469 26.1185 7.44665C 26.0704 7.4424 26.0213 7.4424 25.9723 7.44665C 25.8674 7.40672 25.7513 7.40672 25.6455 7.44665C 25.5913 7.44156 25.5372 7.44156 25.4821 7.44665C 25.4331 7.47044 25.3884 7.49933 25.3445 7.53161C 25.2955 7.55795 25.2499 7.58938 25.2069 7.62506L 18.9892 13.5721C 18.1258 14.3961 16.7567 14.3961 15.8933 13.5721C 15.4977 13.2016 15.2784 12.6834 15.2913 12.1448C 15.3162 11.5781 15.5854 11.0497 16.0309 10.692L 21.9906 4.95741C 26.429 0.69257 33.4791 0.636498 37.9863 4.82998C 42.1288 8.78727 42.3825 15.2652 38.5625 19.5275ZM 37.6165 23.9538C 36.7548 24.7668 35.3986 24.7668 34.5378 23.9538C 34.4509 23.8748 34.3486 23.8136 34.2368 23.7754L 28.4405 18.2107C 28.0759 17.91 27.5341 17.9584 27.2288 18.3186C 26.957 18.6414 26.9639 19.1113 27.2451 19.4256L 33.265 25.2197C 34.0768 25.9826 34.1095 27.2518 33.3372 28.0547C 33.3132 28.0785 33.2899 28.1023 33.265 28.1252C 32.4979 28.8482 31.3223 28.9374 30.4529 28.3376C 30.3927 28.2696 30.3411 28.1932 30.2723 28.1252L 24.2524 22.3311C 23.9376 21.9794 23.3941 21.9463 23.0381 22.2572C 22.6829 22.5682 22.6494 23.1042 22.9632 23.4568C 22.9925 23.4882 23.0243 23.5188 23.057 23.546L 28.8275 29.0852C 28.8713 29.1804 28.9333 29.2662 29.0089 29.3401C 29.0941 29.425 29.1895 29.4845 29.2833 29.5525C 29.5662 29.9025 29.721 30.3366 29.7219 30.7843C 29.7193 31.351 29.4759 31.8896 29.0511 32.2711C 28.5101 32.7774 27.7482 32.9813 27.0215 32.8148C 27.025 31.8064 26.6122 30.8396 25.8777 30.1387C 25.0066 29.3265 23.8172 28.9348 22.627 29.0682C 22.8274 27.9035 22.4008 26.7192 21.5004 25.9418C 20.6499 25.1373 19.4794 24.7507 18.3099 24.8883C 18.4956 23.7431 18.0777 22.5843 17.2005 21.8129C 16.35 21.0083 15.1795 20.6218 14.0099 20.7594C 14.1957 19.6142 13.7778 18.4554 12.9006 17.684C 11.3646 16.2312 8.94206 16.2312 7.40527 17.684L 4.82531 20.2327C 2.83703 18.1164 1.72765 15.3383 1.72077 12.4506C 1.68551 9.6309 2.81639 6.91822 4.85111 4.94042C 9.04526 0.949993 15.5958 0.684077 20.1072 4.32024L 14.8613 9.41766C 13.3228 10.6937 13.1216 12.9604 14.4133 14.4811C 14.5053 14.5881 14.6033 14.6909 14.7065 14.7869C 16.2373 16.238 18.6539 16.238 20.1846 14.7869L 25.8003 9.39217L 31.8202 15.3392L 37.6423 21.0483C 38.4473 21.818 38.4688 23.0872 37.6888 23.8833C 37.6655 23.9071 37.6415 23.9309 37.6165 23.9538ZM 24.6908 34.2761L 22.1109 36.8248C 21.2431 37.6463 19.8749 37.6463 19.0063 36.8248C 18.5901 36.4221 18.3545 35.8716 18.3527 35.2956C 18.3201 34.7408 18.5264 34.1971 18.9203 33.8003L 21.5003 31.2516C 22.4024 30.4471 23.7818 30.4683 24.6564 31.3026C 25.4854 32.0621 25.5336 33.3416 24.7639 34.1597C 24.7355 34.1911 24.7054 34.2209 24.6745 34.2506L 24.6908 34.2761ZM 17.725 32.5769C 16.8573 33.3985 15.4882 33.3985 14.6204 32.5769C 13.8086 31.8004 13.7871 30.5201 14.5731 29.7181C 14.5895 29.702 14.605 29.6867 14.6204 29.6714L 17.2004 27.1227C 18.0681 26.302 19.4372 26.302 20.3049 27.1227C 21.1168 27.8992 21.1383 29.1795 20.3522 29.9815C 20.3368 29.9976 20.3213 30.0129 20.3049 30.0282L 17.725 32.5769ZM 10.3206 28.448C 9.50881 27.6707 9.48731 26.3912 10.2733 25.5892C 10.2897 25.5731 10.3052 25.5578 10.3206 25.5425L 12.9006 22.9938C 13.7666 22.168 15.1391 22.168 16.0051 22.9938C 16.817 23.7703 16.8385 25.0506 16.0524 25.8526C 16.0369 25.8687 16.0215 25.884 16.0051 25.8993L 13.4252 28.448C 12.5575 29.2687 11.1884 29.2687 10.3206 28.448ZM 6.02058 24.3191C 5.20876 23.5426 5.18726 22.2623 5.97328 21.4595C 5.98962 21.4442 6.0051 21.4289 6.02058 21.4136L 8.60054 18.8649C 9.46826 18.0434 10.8374 18.0434 11.7051 18.8649C 12.5169 19.6414 12.5384 20.9217 11.7524 21.7237C 11.7369 21.7398 11.7214 21.7551 11.7051 21.7704L 9.12513 24.3191C 8.2574 25.1398 6.88831 25.1398 6.02058 24.3191ZM 43 12.5016C 43.006 9.1492 41.6266 5.93952 39.1817 3.6151C 34.2419 -1.02696 26.5459 -1.22151 21.3714 3.16482C 16.1943 -1.17223 8.53352 -0.930104 3.64709 3.72554C 1.27956 6.02278 -0.0362204 9.17299 0.000758929 12.4506C 0.00161891 15.922 1.38963 19.2531 3.86209 21.7194C 3.38996 23.0669 3.75975 24.5629 4.80807 25.5425C 5.5468 26.2459 6.53406 26.6368 7.56002 26.63C 7.70966 26.6385 7.85844 26.6385 8.00721 26.63C 7.82146 27.7752 8.24027 28.9348 9.11659 29.7054C 9.85618 30.408 10.8434 30.7979 11.8685 30.7928C 12.0173 30.8013 12.167 30.8013 12.3157 30.7928C 12.13 31.9381 12.5479 33.0969 13.4251 33.8683C 14.1638 34.5717 15.1511 34.9617 16.1771 34.9557C 16.3284 34.9192 16.4781 34.8733 16.6243 34.8198C 16.6174 34.9472 16.6174 35.0747 16.6243 35.2021C 16.6767 37.3507 18.481 39.0507 20.6559 38.9988C 21.6079 38.9768 22.5186 38.6148 23.2203 37.9802L 25.8003 35.4315C 26.0996 35.1376 26.3464 34.7952 26.5313 34.4205C 27.8625 34.7671 29.2798 34.4027 30.2722 33.4605C 31.1434 32.6933 31.5605 31.5413 31.3816 30.402L 31.717 30.402C 32.7507 30.4046 33.744 30.0078 34.4861 29.2976C 35.3668 28.5118 35.7821 27.3368 35.5869 26.1797C 36.784 26.3691 37.9992 25.9732 38.8463 25.1177C 40.0124 24.0192 40.328 22.3039 39.6288 20.8699C 41.7848 18.6032 42.9897 15.6127 43 12.5016Z"/>
</defs>
</svg>
