<svg width="20" height="20" viewBox="0 0 20 20" version="1.1" xmlns="http://www.w3.org/2000/svg" xmlns:xlink="http://www.w3.org/1999/xlink">
<title>play-circle-outline</title>
<desc>Created using Figma</desc>
<g id="Canvas" transform="translate(-3245 -223)">
<g id="play-circle-outline">
<g id="Shape">
<use xlink:href="#path0_fill" transform="translate(3245 223)" fill="#828282"/>
</g>
</g>
</g>
<defs>
<path id="path0_fill" fill-rule="evenodd" d="M 8 14.5L 14 10L 8 5.5L 8 14.5ZM 10 0C 4.5 0 0 4.5 0 10C 0 15.5 4.5 20 10 20C 15.5 20 20 15.5 20 10C 20 4.5 15.5 0 10 0ZM 10 18C 5.6 18 2 14.4 2 10C 2 5.6 5.6 2 10 2C 14.4 2 18 5.6 18 10C 18 14.4 14.4 18 10 18Z"/>
</defs>
</svg>
