<svg width="12" height="12" viewBox="0 0 16 16" version="1.1" xmlns="http://www.w3.org/2000/svg" xmlns:xlink="http://www.w3.org/1999/xlink">
<title>&#239;&#132;&#129;</title>
<desc>Created using Figma</desc>
<g id="Canvas" transform="translate(-3779 -557)">
<g id="&#239;&#132;&#129;">
<use xlink:href="#path0_fill" transform="translate(3779 550)" fill="#828282"/>
</g>
</g>
<defs>
<path id="path0_fill" d="M 9.14062 14.6406C 9.24479 14.7448 9.29688 14.8646 9.29688 15C 9.29688 15.1354 9.24479 15.2552 9.14062 15.3594L 1.85938 22.6406C 1.75521 22.7448 1.63542 22.7969 1.5 22.7969C 1.36458 22.7969 1.24479 22.7448 1.14063 22.6406L 0.359375 21.8594C 0.255208 21.7552 0.203125 21.6354 0.203125 21.5C 0.203125 21.3646 0.255208 21.2448 0.359375 21.1406L 6.5 15L 0.359375 8.85937C 0.255208 8.75521 0.203125 8.63542 0.203125 8.5C 0.203125 8.36458 0.255208 8.24479 0.359375 8.14062L 1.14063 7.35938C 1.24479 7.25521 1.36458 7.20313 1.5 7.20313C 1.63542 7.20313 1.75521 7.25521 1.85938 7.35938L 9.14062 14.6406ZM 15.1406 14.6406C 15.2448 14.7448 15.2969 14.8646 15.2969 15C 15.2969 15.1354 15.2448 15.2552 15.1406 15.3594L 7.85937 22.6406C 7.75521 22.7448 7.63542 22.7969 7.5 22.7969C 7.36458 22.7969 7.24479 22.7448 7.14062 22.6406L 6.35937 21.8594C 6.25521 21.7552 6.20313 21.6354 6.20313 21.5C 6.20313 21.3646 6.25521 21.2448 6.35937 21.1406L 12.5 15L 6.35937 8.85937C 6.25521 8.75521 6.20313 8.63542 6.20313 8.5C 6.20313 8.36458 6.25521 8.24479 6.35937 8.14062L 7.14062 7.35938C 7.24479 7.25521 7.36458 7.20313 7.5 7.20313C 7.63542 7.20313 7.75521 7.25521 7.85937 7.35938L 15.1406 14.6406Z"/>
</defs>
</svg>
