<svg width="30" height="30" viewBox="0 0 41 41" version="1.1" xmlns="http://www.w3.org/2000/svg" xmlns:xlink="http://www.w3.org/1999/xlink">
<title>schedule</title>
<desc>Created using Figma</desc>
<g id="Canvas" transform="translate(-6923 74)">
<g id="schedule">
<g id="Shape">
<use xlink:href="#path0_stroke" transform="translate(6924 -73)" fill="#40C18E"/>
</g>
<g id="Shape">
<use xlink:href="#path1_stroke" transform="translate(6941.55 -63.25)" fill="#40C18E"/>
</g>
</g>
</g>
<defs>
<path id="path0_stroke" d="M 19.5 -0.5C 8.49886 -0.5 -0.5 8.49886 -0.5 19.5L 0.5 19.5C 0.5 9.05114 9.05114 0.5 19.5 0.5L 19.5 -0.5ZM -0.5 19.5C -0.5 30.5011 8.49886 39.5 19.5 39.5L 19.5 38.5C 9.05114 38.5 0.5 29.9489 0.5 19.5L -0.5 19.5ZM 19.5 39.5C 30.5011 39.5 39.5 30.5011 39.5 19.5L 38.5 19.5C 38.5 29.9489 29.9489 38.5 19.5 38.5L 19.5 39.5ZM 39.5 19.5C 39.5 8.49886 30.5011 -0.5 19.5 -0.5L 19.5 0.5C 29.9489 0.5 38.5 9.05114 38.5 19.5L 39.5 19.5ZM 19.5004 34.6C 11.1965 34.6 4.40039 27.8039 4.40039 19.5L 3.40039 19.5C 3.40039 28.3561 10.6442 35.6 19.5004 35.6L 19.5004 34.6ZM 4.40039 19.5C 4.40039 11.1961 11.1965 4.4 19.5004 4.4L 19.5004 3.4C 10.6442 3.4 3.40039 10.6439 3.40039 19.5L 4.40039 19.5ZM 19.5004 4.4C 27.8042 4.4 34.6004 11.1961 34.6004 19.5L 35.6004 19.5C 35.6004 10.6439 28.3565 3.4 19.5004 3.4L 19.5004 4.4ZM 34.6004 19.5C 34.6004 27.8039 27.8042 34.6 19.5004 34.6L 19.5004 35.6C 28.3565 35.6 35.6004 28.3561 35.6004 19.5L 34.6004 19.5Z"/>
<path id="path1_stroke" d="M 2.925 0L 3.425 0L 3.425 -0.5L 2.925 -0.5L 2.925 0ZM 0 0L 0 -0.5L -0.5 -0.5L -0.5 0L 0 0ZM 0 11.7L -0.5 11.7L -0.5 11.9794L -0.262049 12.1258L 0 11.7ZM 10.14 17.94L 9.87795 18.3658L 10.3038 18.6279L 10.5658 18.202L 10.14 17.94ZM 11.7 15.405L 12.1258 15.6671L 12.3908 15.2364L 11.9572 14.9763L 11.7 15.405ZM 2.925 10.14L 2.425 10.14L 2.425 10.4231L 2.66775 10.5687L 2.925 10.14ZM 2.925 -0.5L 0 -0.5L 0 0.5L 2.925 0.5L 2.925 -0.5ZM -0.5 0L -0.5 11.7L 0.5 11.7L 0.5 0L -0.5 0ZM -0.262049 12.1258L 9.87795 18.3658L 10.402 17.5142L 0.262049 11.2742L -0.262049 12.1258ZM 10.5658 18.202L 12.1258 15.6671L 11.2742 15.143L 9.71417 17.678L 10.5658 18.202ZM 11.9572 14.9763L 3.18225 9.71125L 2.66775 10.5687L 11.4428 15.8337L 11.9572 14.9763ZM 3.425 10.14L 3.425 0L 2.425 0L 2.425 10.14L 3.425 10.14Z"/>
</defs>
</svg>
