<svg width="198" height="198" viewBox="0 0 198 198" version="1.1" xmlns="http://www.w3.org/2000/svg" xmlns:xlink="http://www.w3.org/1999/xlink">
<title>Fill 1</title>
<desc>Created using Figma</desc>
<g id="Canvas" transform="matrix(3 0 0 3 -6120 -1752)">
<g id="Fill 1">
<use xlink:href="#path0_fill" transform="translate(2040 584)" fill="#40C18E"/>
</g>
</g>
<defs>
<path id="path0_fill" fill-rule="evenodd" d="M 43.4356 29.4143C 41.5821 31.2678 38.5198 31.2678 36.5857 29.4143C 34.7322 27.5608 34.7322 24.4985 36.5857 22.5644C 37.5527 21.5974 38.7615 21.1138 39.9703 21.1138C 41.1791 21.1138 42.4693 21.5974 43.355 22.5644C 45.3697 24.4179 45.3697 27.4802 43.4356 29.4143ZM 53.0255 37.473L 30.0582 60.4403C 28.527 61.9714 26.5124 62.7773 24.3365 62.7773C 22.1615 62.7773 20.1468 61.9714 18.6148 60.4403L 5.55973 47.3046C 4.02938 45.7734 3.22351 43.7588 3.22351 41.5829C 3.22351 39.4071 4.02938 37.3924 5.55973 35.8612L 28.527 12.8939L 51.8973 11.6851L 44.4841 19.0991C 41.3404 17.0039 37.0701 17.4068 34.3293 20.1468C 31.1864 23.2897 31.1864 28.3666 34.3293 31.5095C 35.8613 33.0407 37.9557 33.8466 40.0518 33.8466C 42.1463 33.8466 44.1609 33.0407 45.7727 31.5095C 48.5134 28.7696 48.835 24.4985 46.8203 21.3556L 54.2343 13.9416L 53.0255 37.473ZM 63.2608 0.483522L 55.2819 8.46164L 27.7211 9.83162C 27.3182 9.83162 26.9153 9.9928 26.6735 10.3151L 3.30326 33.6854C 1.20881 35.7807 0 38.6818 0 41.6635C 0 44.6452 1.20881 47.5464 3.30326 49.6424L 16.3584 62.6967C 18.4536 64.792 21.3556 66.0008 24.3365 66.0008C 27.3182 66.0008 30.2201 64.792 32.3146 62.6967L 55.6849 39.3265C 56.008 39.0041 56.1692 38.6818 56.1692 38.2789L 57.5384 10.7181L 65.5165 2.73996C 66.1612 2.09526 66.1612 1.12822 65.5165 0.483522C 64.8726 -0.161174 63.9047 -0.161174 63.2608 0.483522Z"/>
</defs>
</svg>
