<svg width="210" height="210" viewBox="0 0 210 210" version="1.1" xmlns="http://www.w3.org/2000/svg" xmlns:xlink="http://www.w3.org/1999/xlink">
<title>settings</title>
<desc>Created using Figma</desc>
<g id="Canvas" transform="matrix(3 0 0 3 -4278 -2280)">
<g id="settings">
<g id="Shape">
<use xlink:href="#path0_stroke" transform="translate(1428 762)" fill="#5AC1A7"/>
</g>
</g>
</g>
<defs>
<path id="path0_stroke" d="M 57.6993 29.8492L 56.764 28.6765L 55.941 29.3329L 56.2784 30.33L 57.6993 29.8492ZM 64.7689 24.2111L 65.7042 25.3838L 65.7656 25.3348L 65.8216 25.2796L 64.7689 24.2111ZM 65.1056 22.2211L 66.4432 21.5422L 66.4242 21.5048L 66.4031 21.4685L 65.1056 22.2211ZM 58.3726 10.6131L 59.6701 9.86046L 59.5689 9.68603L 59.4253 9.54451L 58.3726 10.6131ZM 56.3527 10.2814L 55.8847 8.85628L 55.8433 8.86988L 55.8027 8.88586L 56.3527 10.2814ZM 47.9364 13.598L 47.0079 14.7761L 47.6847 15.3095L 48.4863 14.9935L 47.9364 13.598ZM 42.2134 10.2814L 40.7313 10.5128L 40.8515 11.2827L 41.5505 11.627L 42.2134 10.2814ZM 40.8668 1.65829L 39.4459 1.17754L 39.3279 1.52613L 39.3847 1.88973L 40.8668 1.65829ZM 24.3709 1.32663L 25.8542 1.54969L 25.8709 1.43879L 25.8709 1.32663L 24.3709 1.32663ZM 23.0243 10.2814L 23.4923 11.7065L 24.3702 11.4182L 24.5076 10.5045L 23.0243 10.2814ZM 17.3012 13.598L 16.7316 14.9856L 17.4635 15.286L 18.1247 14.8518L 17.3012 13.598ZM 9.22163 10.2814L 9.79124 8.89377L 9.74111 8.87319L 9.68962 8.85628L 9.22163 10.2814ZM 6.86508 10.9447L 5.81237 9.87617L 5.66872 10.0177L 5.56754 10.1921L 6.86508 10.9447ZM 0.13207 22.5528L 1.18478 23.6213L 1.32843 23.4798L 1.4296 23.3054L 0.13207 22.5528ZM 0.80537 24.5427L -0.247338 25.6113L -0.175617 25.6819L -0.0950959 25.7424L 0.80537 24.5427ZM 7.87503 29.8492L 9.37503 29.8492L 9.37503 29.0996L 8.77549 28.6496L 7.87503 29.8492ZM 7.87503 36.4824L 8.81029 37.6551L 9.63328 36.9988L 9.2959 36.0017L 7.87503 36.4824ZM 0.80537 42.1206L -0.129898 40.9479L -0.191347 40.9969L -0.247338 41.052L 0.80537 42.1206ZM 0.46872 44.1106L -0.86887 44.7894L -0.849872 44.8268L -0.82881 44.8632L 0.46872 44.1106ZM 7.20173 55.7186L 5.90419 56.4712L 6.00537 56.6456L 6.14902 56.7871L 7.20173 55.7186ZM 9.22163 56.0503L 9.68962 57.4754L 9.73103 57.4618L 9.77157 57.4458L 9.22163 56.0503ZM 17.6379 52.7337L 18.5664 51.5556L 17.8896 51.0222L 17.0879 51.3381L 17.6379 52.7337ZM 23.3609 56.0503L 24.843 55.8188L 24.7228 55.049L 24.0238 54.7046L 23.3609 56.0503ZM 24.7075 64.6734L 26.2075 64.6734L 26.2075 64.557L 26.1896 64.4419L 24.7075 64.6734ZM 41.5401 64.6734L 40.058 64.4419L 40.0401 64.557L 40.0401 64.6734L 41.5401 64.6734ZM 42.8867 56.0503L 42.2238 54.7046L 41.5248 55.049L 41.4046 55.8188L 42.8867 56.0503ZM 48.6097 52.7337L 49.1596 51.3381L 48.358 51.0222L 47.6812 51.5556L 48.6097 52.7337ZM 57.026 56.0503L 57.6888 54.7046L 57.6334 54.6773L 57.5759 54.6547L 57.026 56.0503ZM 59.0459 55.3869L 57.7483 54.6343L 57.7273 54.6706L 57.7083 54.7081L 59.0459 55.3869ZM 65.7789 43.7789L 67.0764 44.5315L 67.0975 44.4952L 67.1165 44.4578L 65.7789 43.7789ZM 65.4422 41.7889L 64.5942 43.0263L 64.6829 43.087L 64.7794 43.1346L 65.4422 41.7889ZM 59.1993 36.4824C 59.194 36.1105 59.264 35.7283 59.3496 35.1799C 59.435 34.6329 59.532 33.9371 59.5359 33.1658L 56.5359 33.1658C 56.5398 33.7212 56.4685 34.1862 56.3856 34.7171C 56.3029 35.2466 56.2045 35.8594 56.1993 36.4824L 59.1993 36.4824ZM 59.5359 33.1658C 59.5359 31.8392 59.516 30.6006 59.1201 29.3685L 56.2784 30.33C 56.5558 31.0878 56.5359 31.8392 56.5359 33.1658L 59.5359 33.1658ZM 58.6345 31.022L 65.7042 25.3838L 63.8337 23.0383L 56.764 28.6765L 58.6345 31.022ZM 65.8216 25.2796C 66.3425 24.7664 66.7108 24.1401 66.804 23.4049C 66.8552 22.7927 66.6782 22.0256 66.4432 21.5422L 63.768 22.9C 63.8481 23.0579 63.8208 23.083 63.8279 23.0273C 63.8311 23.0019 63.8383 22.9912 63.8326 23.0016C 63.8252 23.0154 63.796 23.0639 63.7162 23.1425L 65.8216 25.2796ZM 66.4031 21.4685L 59.6701 9.86046L 57.075 11.3657L 63.808 22.9737L 66.4031 21.4685ZM 59.4253 9.54451C 58.7073 8.83717 57.4529 8.34128 55.8847 8.85628L 56.8207 11.7065C 57.0813 11.621 57.2152 11.6448 57.2564 11.655C 57.3076 11.6676 57.3258 11.6875 57.3199 11.6816L 59.4253 9.54451ZM 55.8027 8.88586L 47.3865 12.2024L 48.4863 14.9935L 56.9026 11.677L 55.8027 8.88586ZM 48.8649 12.4199C 47.0532 11.0025 44.8961 9.93077 42.8762 8.9358L 41.5505 11.627C 43.5704 12.622 45.4531 13.5402 47.0079 14.7761L 48.8649 12.4199ZM 43.6954 10.05L 42.3488 1.42685L 39.3847 1.88973L 40.7313 10.5128L 43.6954 10.05ZM 42.2876 2.13904C 42.6733 0.99918 42.2495 0.00283141 41.6249 -0.612524C 41.0661 -1.16299 40.2732 -1.5 39.5201 -1.5L 39.5201 1.5C 39.4557 1.5 39.4467 1.48764 39.4785 1.50107C 39.5057 1.51257 39.5206 1.5257 39.5195 1.52458C 39.5165 1.52169 39.4763 1.48068 39.451 1.39229C 39.4219 1.29074 39.4359 1.20702 39.4459 1.17754L 42.2876 2.13904ZM 39.5201 -1.5L 26.0541 -1.5L 26.0541 1.5L 39.5201 1.5L 39.5201 -1.5ZM 26.0541 -1.5C 25.3035 -1.5 24.5768 -1.16728 24.0686 -0.791836C 23.6077 -0.45128 22.8709 0.269947 22.8709 1.32663L 25.8709 1.32663C 25.8709 1.54442 25.7901 1.66751 25.7815 1.68017C 25.7709 1.69582 25.7872 1.66842 25.8514 1.62098C 25.9122 1.57605 25.9825 1.53819 26.0437 1.51473C 26.0728 1.5036 26.0916 1.49888 26.0983 1.49745C 26.1061 1.4958 26.0907 1.5 26.0541 1.5L 26.0541 -1.5ZM 22.8876 1.10357L 21.541 10.0583L 24.5076 10.5045L 25.8542 1.54969L 22.8876 1.10357ZM 22.5563 8.85628C 20.2953 9.62291 18.4443 11.0543 16.4778 12.3442L 18.1247 14.8518C 20.1979 13.4884 21.7135 12.2665 23.4923 11.7065L 22.5563 8.85628ZM 17.8708 12.2104L 9.79124 8.89377L 8.65202 11.669L 16.7316 14.9856L 17.8708 12.2104ZM 9.68962 8.85628C 8.93044 8.60697 8.17814 8.57542 7.44911 8.81483C 6.84994 9.03163 6.22723 9.47273 5.81237 9.87617L 7.91778 12.0133C 8.17787 11.757 8.3195 11.6866 8.3851 11.6651C 8.41354 11.6557 8.50286 11.6242 8.75363 11.7065L 9.68962 8.85628ZM 5.56754 10.1921L -1.16546 21.8002L 1.4296 23.3054L 8.16261 11.6973L 5.56754 10.1921ZM -0.920639 21.4842C -1.37359 21.9304 -1.48541 22.4835 -1.49852 22.8579C -1.5009 23.1672 -1.42585 23.6105 -1.33088 23.9041C -1.14303 24.4308 -0.707059 25.1425 -0.247338 25.6113L 1.85808 23.4742C 1.68348 23.3022 1.55981 23.0873 1.51086 22.9426C 1.48605 22.8693 1.50257 22.8793 1.49965 22.9628C 1.49706 23.0366 1.46941 23.3409 1.18478 23.6213L -0.920639 21.4842ZM -0.0950959 25.7424L 6.97456 31.0489L 8.77549 28.6496L 1.70584 23.3431L -0.0950959 25.7424ZM 6.37503 29.8492C 6.38029 30.2212 6.31032 30.6034 6.22466 31.1517C 6.13926 31.6988 6.04226 32.3946 6.03837 33.1658L 9.03837 33.1658C 9.03449 32.6104 9.10582 32.1455 9.18874 31.6146C 9.2714 31.085 9.36976 30.4723 9.37503 29.8492L 6.37503 29.8492ZM 6.03837 33.1658C 6.03837 34.4925 6.05829 35.731 6.45415 36.9632L 9.2959 36.0017C 9.01846 35.2438 9.03837 34.4925 9.03837 33.1658L 6.03837 33.1658ZM 6.93976 35.3097L -0.129898 40.9479L 1.74064 43.2933L 8.81029 37.6551L 6.93976 35.3097ZM -0.247338 41.052C -0.76822 41.5652 -1.13647 42.1916 -1.22976 42.9268C -1.28096 43.5389 -1.10393 44.306 -0.86887 44.7894L 1.80631 43.4317C 1.72618 43.2738 1.75346 43.2486 1.74638 43.3044C 1.74317 43.3297 1.73601 43.3405 1.74165 43.33C 1.74911 43.3162 1.77826 43.2678 1.85808 43.1892L -0.247338 41.052ZM -0.82881 44.8632L 5.90419 56.4712L 8.49926 54.966L 1.76625 43.3579L -0.82881 44.8632ZM 6.14902 56.7871C 6.86701 57.4945 8.12136 57.9904 9.68962 57.4754L 8.75363 54.6251C 8.49303 54.7107 8.35909 54.6868 8.31791 54.6767C 8.2667 54.6641 8.24848 54.6442 8.25443 54.65L 6.14902 56.7871ZM 9.77157 57.4458L 18.1878 54.1292L 17.0879 51.3381L 8.67168 54.6547L 9.77157 57.4458ZM 16.7094 53.9118C 18.5211 55.3291 20.6782 56.4009 22.6981 57.3959L 24.0238 54.7046C 22.0039 53.7097 20.1212 52.7915 18.5664 51.5556L 16.7094 53.9118ZM 21.8789 56.2817L 23.2255 64.9048L 26.1896 64.4419L 24.843 55.8188L 21.8789 56.2817ZM 23.2075 64.6734C 23.2075 66.3928 24.8001 67.5 26.3908 67.5L 26.3908 64.5C 26.217 64.5 26.1449 64.4451 26.1382 64.4394C 26.1202 64.4242 26.2075 64.4893 26.2075 64.6734L 23.2075 64.6734ZM 26.3908 67.5L 39.8568 67.5L 39.8568 64.5L 26.3908 64.5L 26.3908 67.5ZM 39.8568 67.5C 40.6075 67.5 41.3342 67.1673 41.8423 66.7918C 42.3032 66.4513 43.0401 65.7301 43.0401 64.6734L 40.0401 64.6734C 40.0401 64.4556 40.1209 64.3325 40.1294 64.3198C 40.14 64.3042 40.1237 64.3316 40.0595 64.379C 39.9987 64.424 39.9285 64.4618 39.8672 64.4853C 39.8382 64.4964 39.8194 64.5011 39.8126 64.5025C 39.8048 64.5042 39.8202 64.5 39.8568 64.5L 39.8568 67.5ZM 43.0221 64.9048L 44.3687 56.2817L 41.4046 55.8188L 40.058 64.4419L 43.0221 64.9048ZM 43.5495 57.3959C 45.5694 56.4009 47.7265 55.3291 49.5382 53.9118L 47.6812 51.5556C 46.1264 52.7915 44.2437 53.7097 42.2238 54.7046L 43.5495 57.3959ZM 48.0598 54.1292L 56.476 57.4458L 57.5759 54.6547L 49.1596 51.3381L 48.0598 54.1292ZM 56.3631 57.3959C 57.1317 57.7745 57.9728 57.7327 58.6301 57.5168C 59.2864 57.3013 59.993 56.8352 60.3835 56.0658L 57.7083 54.7081C 57.7233 54.6784 57.738 54.6587 57.7474 54.6477C 57.7566 54.6369 57.7615 54.6334 57.7594 54.6351C 57.7573 54.6367 57.7504 54.6417 57.7381 54.6482C 57.726 54.6546 57.711 54.661 57.6942 54.6666C 57.6773 54.6721 57.661 54.6759 57.6467 54.6781C 57.6323 54.6803 57.6225 54.6805 57.6182 54.6803C 57.6139 54.6802 57.6178 54.6799 57.6293 54.6825C 57.6409 54.6852 57.6618 54.6913 57.6888 54.7046L 56.3631 57.3959ZM 60.3434 56.1395L 67.0764 44.5315L 64.4813 43.0263L 57.7483 54.6343L 60.3434 56.1395ZM 67.1165 44.4578C 67.3638 43.9403 67.5299 43.0986 67.4798 42.4914C 67.4012 41.7942 67.0446 40.9061 66.105 40.4433L 64.7794 43.1346C 64.6672 43.0793 64.5841 42.9925 64.5372 42.9135C 64.4965 42.8452 64.4964 42.8074 64.4987 42.8277C 64.5008 42.8464 64.5017 42.8904 64.4899 42.9519C 64.4782 43.0128 64.4589 43.0653 64.4413 43.1L 67.1165 44.4578ZM 66.2902 40.5516L 58.5472 35.2451L 56.8513 37.7197L 64.5942 43.0263L 66.2902 40.5516ZM 32.7872 43.2739C 27.198 43.2739 22.5044 38.6179 22.5044 33.1658L 19.5044 33.1658C 19.5044 40.3168 25.5836 46.2739 32.7872 46.2739L 32.7872 43.2739ZM 22.5044 33.1658C 22.5044 27.7138 27.198 23.0578 32.7872 23.0578L 32.7872 20.0578C 25.5836 20.0578 19.5044 26.0149 19.5044 33.1658L 22.5044 33.1658ZM 32.7872 23.0578C 38.3763 23.0578 43.0699 27.7138 43.0699 33.1658L 46.0699 33.1658C 46.0699 26.0149 39.9907 20.0578 32.7872 20.0578L 32.7872 23.0578ZM 43.0699 33.1658C 43.0699 38.6179 38.3763 43.2739 32.7872 43.2739L 32.7872 46.2739C 39.9907 46.2739 46.0699 40.3168 46.0699 33.1658L 43.0699 33.1658Z"/>
</defs>
</svg>
